<?xml version="1.0" encoding="UTF-8" standalone="no"?>
<!-- Created with Inkscape (http://www.inkscape.org/) -->

<svg
   version="1.1"
   id="svg2"
   width="123.97693"
   height="167.96471"
   viewBox="0 0 123.97693 167.96471"
   sodipodi:docname="DZP_Logo_2.svg"
   inkscape:version="1.4.2 (f4327f4, 2025-05-13)"
   xmlns:inkscape="http://www.inkscape.org/namespaces/inkscape"
   xmlns:sodipodi="http://sodipodi.sourceforge.net/DTD/sodipodi-0.dtd"
   xmlns="http://www.w3.org/2000/svg"
   xmlns:svg="http://www.w3.org/2000/svg">
  <defs
     id="defs6" />
  <sodipodi:namedview
     id="namedview4"
     pagecolor="#ffffff"
     bordercolor="#000000"
     borderopacity="0.25"
     inkscape:showpageshadow="2"
     inkscape:pageopacity="0.0"
     inkscape:pagecheckerboard="0"
     inkscape:deskcolor="#d1d1d1"
     inkscape:zoom="2.7729946"
     inkscape:cx="61.846496"
     inkscape:cy="82.762513"
     inkscape:window-width="1920"
     inkscape:window-height="991"
     inkscape:window-x="-9"
     inkscape:window-y="-9"
     inkscape:window-maximized="1"
     inkscape:current-layer="g8" />
  <g
     id="g8"
     inkscape:groupmode="layer"
     inkscape:label="ink_ext_XXXXXX"
     transform="matrix(1.3333333,0,0,-1.3333333,-56.181732,222.21257)">
    <g
       id="g10"
       transform="scale(0.1)">
      <path
         d="m 1092.14,1232.63 c 14.18,-4.8 17.21,-16.63 6.74,-26.43 -10.45,-9.78 -30.29,-13.85 -44.36,-9.12 -14.02,4.75 -17.05,16.59 -6.74,26.42 10.32,9.83 30.18,13.92 44.36,9.13"
         style="fill:#1a66ba;fill-opacity:1;fill-rule:nonzero;stroke:none"
         id="path12" />
      <path
         d="m 1131.42,1295.92 c 17.36,-1.02 27.19,-10.56 21.88,-21.31 -5.34,-10.74 -23.62,-18.63 -40.84,-17.65 -17.21,1 -26.92,10.52 -21.74,21.27 5.17,10.79 23.38,18.7 40.7,17.69"
         style="fill:#1a66ba;fill-opacity:1;fill-rule:nonzero;stroke:none"
         id="path14" />
      <path
         d="m 1165.75,1361.16 c 18.61,2.63 34.18,-3.7 34.69,-14.11 0.51,-10.39 -14.2,-20.96 -32.72,-23.59 -18.51,-2.65 -33.88,3.63 -34.45,14.04 -0.63,10.42 13.91,21.01 32.48,23.66"
         style="fill:#1a66ba;fill-opacity:1;fill-rule:nonzero;stroke:none"
         id="path16" />
      <path
         d="m 1182.85,1426.76 c 17.19,8.47 39.24,9.94 49.14,3.25 9.86,-6.69 3.83,-18.96 -13.34,-27.43 -17.13,-8.45 -38.91,-9.9 -48.79,-3.22 -9.9,6.68 -4.1,18.95 12.99,27.4"
         style="fill:#1a66ba;fill-opacity:1;fill-rule:nonzero;stroke:none"
         id="path18" />
      <path
         d="m 1191.98,1488.98 c 11.56,11.33 34.69,19.81 51.56,18.89 16.84,-0.94 20.94,-10.92 9.28,-22.29 -11.64,-11.37 -34.53,-19.78 -51.25,-18.82 -16.8,0.95 -21.13,10.89 -9.59,22.22"
         style="fill:#1a66ba;fill-opacity:1;fill-rule:nonzero;stroke:none"
         id="path20" />
      <path
         d="m 1166.44,1562.18 c 3.57,12.11 24.61,27.03 47.01,33.3 22.37,6.27 37.42,1.44 33.73,-10.76 -3.69,-12.17 -24.63,-27.04 -46.79,-33.22 -22.21,-6.2 -37.43,-1.42 -33.95,10.68"
         style="fill:#1a66ba;fill-opacity:1;fill-rule:nonzero;stroke:none"
         id="path22" />
      <path
         d="m 1071.22,1612.9 c -8.63,8.2 2.87,25.99 25.64,39.71 22.78,13.72 48.07,18.09 56.49,9.76 8.4,-8.34 -3.11,-26.11 -25.65,-39.69 -22.57,-13.61 -47.83,-17.98 -56.48,-9.78"
         style="fill:#1a66ba;fill-opacity:1;fill-rule:nonzero;stroke:none"
         id="path24" />
      <path
         d="m 537.836,963.219 c -10.582,3.711 -9.93,16.332 1.43,28.179 11.347,11.862 29.218,18.582 39.929,15.022 10.739,-3.57 10.078,-16.201 -1.398,-28.19 -11.512,-11.992 -29.383,-18.718 -39.961,-15.011"
         style="fill:#1a66ba;fill-opacity:1;fill-rule:nonzero;stroke:none"
         id="path26" />
      <path
         d="m 633.273,958.879 c -12.507,1.391 -15.027,12.723 -5.718,25.242 9.332,12.527 27.101,21.599 39.73,20.319 12.649,-1.26 15.289,-12.491 5.852,-25.12 -9.492,-12.66 -27.34,-21.82 -39.864,-20.441"
         style="fill:#1a66ba;fill-opacity:1;fill-rule:nonzero;stroke:none"
         id="path28" />
      <path
         d="m 749.484,979.871 c -14.8,-5.012 -25.898,0.77 -24.8,12.879 1.082,12.07 13.972,25.93 28.812,31.03 14.918,5.15 26.109,-0.49 24.949,-12.62 -1.14,-12.18 -14.121,-26.211 -28.961,-31.289"
         style="fill:#1a66ba;fill-opacity:1;fill-rule:nonzero;stroke:none"
         id="path30" />
      <path
         d="m 855.023,1026.25 c -14.128,-8.84 -28.808,-7.77 -32.796,2.3 -4.024,10.03 4.168,25.26 18.328,34.1 14.179,8.88 28.922,8 32.961,-2.02 3.988,-10.07 -4.289,-25.5 -18.493,-34.38"
         style="fill:#1a66ba;fill-opacity:1;fill-rule:nonzero;stroke:none"
         id="path32" />
      <path
         d="m 959.125,1091.93 c -6.211,-12.68 -21.84,-20.71 -34.891,-18.03 -13.058,2.65 -18.589,14.95 -12.347,27.56 6.218,12.63 21.816,20.83 34.859,18.25 13.039,-2.61 18.59,-15.08 12.379,-27.78"
         style="fill:#1a66ba;fill-opacity:1;fill-rule:nonzero;stroke:none"
         id="path34" />
      <path
         d="m 1034.72,1157.94 c 0.39,-12.46 -11.37,-24.47 -26.22,-26.85 -14.863,-2.41 -27.145,5.63 -27.484,17.97 -0.321,12.38 11.398,24.47 26.204,26.98 14.82,2.5 27.11,-5.63 27.5,-18.1"
         style="fill:#1a66ba;fill-opacity:1;fill-rule:nonzero;stroke:none"
         id="path36" />
      <path
         d="m 568.016,1360.32 c -9.2,8.94 -26.461,8.98 -38.539,0.16 -12.071,-8.85 -14.454,-23.17 -5.34,-31.99 9.109,-8.83 26.34,-8.89 38.519,-0.14 12.16,8.74 14.559,23.07 5.36,31.97"
         style="fill:#1a66ba;fill-opacity:1;fill-rule:nonzero;stroke:none"
         id="path38" />
      <path
         d="m 624.297,1414.81 c -4.953,11.47 -20.543,16.15 -34.762,10.42 -14.211,-5.73 -21.762,-19.68 -16.898,-31.07 4.879,-11.38 20.367,-16 34.679,-10.33 14.289,5.65 21.911,19.51 16.981,30.98"
         style="fill:#1a66ba;fill-opacity:1;fill-rule:nonzero;stroke:none"
         id="path40" />
      <path
         d="m 687.035,1465.41 c 3.281,13.8 -5.512,25.21 -19.59,25.44 -14.058,0.2 -28.121,-10.81 -31.441,-24.54 -3.301,-13.72 5.441,-25 19.531,-25.26 14.11,-0.3 28.219,10.59 31.5,24.36"
         style="fill:#1a66ba;fill-opacity:1;fill-rule:nonzero;stroke:none"
         id="path42" />
      <path
         d="m 758.406,1514.76 c 10.66,12.95 11.457,29.06 1.789,35.93 -9.679,6.78 -26.179,1.77 -36.871,-11.19 -10.687,-12.91 -11.488,-28.84 -1.801,-35.65 9.692,-6.84 26.192,-1.99 36.883,10.91"
         style="fill:#1a66ba;fill-opacity:1;fill-rule:nonzero;stroke:none"
         id="path44" />
      <path
         d="m 830.305,1560.71 c 15.371,8.44 27.16,25.6 26.289,38.28 -0.918,12.62 -14.141,15.9 -29.547,7.4 -15.391,-8.47 -27.113,-25.47 -26.172,-38.02 0.891,-12.61 14.078,-16.04 29.43,-7.66"
         style="fill:#1a66ba;fill-opacity:1;fill-rule:nonzero;stroke:none"
         id="path46" />
      <path
         d="m 935.637,1604.66 c 15.058,-0.44 38.109,12.3 51.437,28.46 13.316,16.12 11.762,29.42 -3.437,29.74 -15.172,0.34 -38.141,-12.32 -51.301,-28.31 -13.18,-16.02 -11.742,-29.41 3.301,-29.89"
         style="fill:#1a66ba;fill-opacity:1;fill-rule:nonzero;stroke:none"
         id="path48" />
      <path
         d="m 462.465,1015.4 c -2.059,-10.39 10.172,-15.728 27.262,-11.93 17.039,3.79 32.617,15.31 34.847,25.79 2.27,10.47 -9.84,15.85 -27.07,11.99 -17.258,-3.86 -32.969,-15.44 -35.039,-25.85"
         style="fill:#1a66ba;fill-opacity:1;fill-rule:nonzero;stroke:none"
         id="path50" />
      <path
         d="m 434.094,1083.34 c -12.008,-9.41 -11.938,-21.13 0.062,-26.17 11.969,-5.07 31.418,-1.53 43.547,7.87 12.192,9.43 12.332,21.14 0.281,26.19 -12.109,5.06 -31.8,1.51 -43.89,-7.89"
         style="fill:#1a66ba;fill-opacity:1;fill-rule:nonzero;stroke:none"
         id="path52" />
      <path
         d="m 438.184,1155.47 c -15.188,-7.26 -20.989,-19.52 -13.039,-27.43 7.921,-7.87 26.589,-8.4 41.8,-1.16 15.258,7.23 21.289,19.51 13.379,27.41 -7.961,7.9 -26.871,8.42 -42.14,1.18"
         style="fill:#1a66ba;fill-opacity:1;fill-rule:nonzero;stroke:none"
         id="path54" />
      <path
         d="m 471.105,1231.6 c -16.101,-0.7 -30.281,-10.53 -31.699,-21.9 -1.5,-11.35 10.25,-19.95 26.289,-19.2 16.051,0.72 30.371,10.47 31.918,21.79 1.524,11.35 -10.386,20.01 -26.508,19.31"
         style="fill:#1a66ba;fill-opacity:1;fill-rule:nonzero;stroke:none"
         id="path56" />
      <path
         d="m 513.836,1297.76 c -14.063,4.06 -31.27,-1.71 -38.449,-12.86 -7.223,-11.13 -1.801,-23.39 12.136,-27.4 13.954,-3.99 31.223,1.73 38.563,12.8 7.32,11.09 1.809,23.39 -12.25,27.46"
         style="fill:#1a66ba;fill-opacity:1;fill-rule:nonzero;stroke:none"
         id="path58" />
      <path
         d="m 1034.41,1250.54 c 12.68,-2.11 17.32,-10.43 10.37,-18.64 -6.95,-8.19 -22.73,-13.15 -35.29,-11.07 -12.556,2.07 -17.217,10.41 -10.396,18.62 6.796,8.22 22.616,13.18 35.316,11.09"
         style="fill:#4279c6;fill-opacity:1;fill-rule:nonzero;stroke:none"
         id="path60" />
      <path
         d="m 1055.74,1300.73 c 14.61,0.96 24.51,-5.02 22.05,-13.41 -2.5,-8.37 -16.31,-15.96 -30.86,-16.97 -14.49,-0.99 -24.3,5.02 -21.91,13.4 2.34,8.39 16.09,15.99 30.72,16.98"
         style="fill:#4279c6;fill-opacity:1;fill-rule:nonzero;stroke:none"
         id="path62" />
      <path
         d="m 1072.55,1351.82 c 15.06,3.78 29.16,0.71 31.48,-6.84 2.25,-7.54 -8.08,-16.73 -23.04,-20.52 -14.92,-3.77 -28.87,-0.71 -31.21,6.85 -2.39,7.56 7.79,16.75 22.77,20.51"
         style="fill:#4279c6;fill-opacity:1;fill-rule:nonzero;stroke:none"
         id="path64" />
      <path
         d="m 1074.99,1401.51 c 12.79,7.9 30.88,11.16 40.31,7.26 9.44,-3.89 6.64,-13.47 -6.13,-21.38 -12.73,-7.89 -30.66,-11.1 -40.04,-7.22 -9.47,3.9 -6.87,13.43 5.86,21.34"
         style="fill:#4279c6;fill-opacity:1;fill-rule:nonzero;stroke:none"
         id="path66" />
      <path
         d="m 1071.38,1447.88 c 7.6,9.44 25.35,17.95 39.57,18.96 14.18,1 19.41,-5.89 11.72,-15.37 -7.6,-9.46 -25.2,-17.89 -39.3,-18.87 -14.14,-0.97 -19.55,5.85 -11.99,15.28"
         style="fill:#4279c6;fill-opacity:1;fill-rule:nonzero;stroke:none"
         id="path68" />
      <path
         d="m 1036.95,1498.87 c 0.76,9.21 15.63,22.22 33.13,29.03 17.53,6.8 30.95,4.78 30.05,-4.5 -0.89,-9.28 -15.64,-22.23 -32.98,-28.96 -17.39,-6.74 -30.92,-4.76 -30.2,4.43"
         style="fill:#4279c6;fill-opacity:1;fill-rule:nonzero;stroke:none"
         id="path70" />
      <path
         d="m 949.406,1532.65 c -8.422,5.04 -2.519,18.84 13.188,30.8 15.703,11.96 35.152,17.48 43.456,12.33 8.28,-5.18 2.36,-18.96 -13.163,-30.81 -15.59,-11.85 -35.012,-17.36 -43.481,-12.32"
         style="fill:#4279c6;fill-opacity:1;fill-rule:nonzero;stroke:none"
         id="path72" />
      <path
         d="m 621.195,998.371 c -9.5,1.659 -11.242,10.949 -3.91,20.749 7.328,9.81 21.02,16.49 30.57,14.95 9.559,-1.53 11.309,-10.82 3.899,-20.74 -7.418,-9.92 -21.109,-16.619 -30.559,-14.959"
         style="fill:#4279c6;fill-opacity:1;fill-rule:nonzero;stroke:none"
         id="path74" />
      <path
         d="m 701.465,1004.69 c -10.692,-0.21 -14.809,7.82 -9.309,17.92 5.528,10.07 18.68,18.46 29.438,18.79 10.781,0.34 14.972,-7.62 9.371,-17.79 -5.59,-10.19 -18.828,-18.67 -29.5,-18.92"
         style="fill:#4279c6;fill-opacity:1;fill-rule:nonzero;stroke:none"
         id="path76" />
      <path
         d="m 794.465,1031.63 c -11.43,-5.15 -21.68,-2.02 -22.942,6.94 -1.277,8.91 6.954,20.35 18.43,25.56 11.461,5.25 21.793,2.24 23.051,-6.75 1.242,-9.02 -7.07,-20.56 -18.539,-25.75"
         style="fill:#4279c6;fill-opacity:1;fill-rule:nonzero;stroke:none"
         id="path78" />
      <path
         d="m 874.066,1076.05 c -10.203,-7.87 -22.621,-8.55 -27.761,-1.59 -5.141,6.93 -1.078,18.88 9.129,26.77 10.211,7.89 22.66,8.71 27.832,1.78 5.121,-6.95 1.007,-19.04 -9.2,-26.96"
         style="fill:#4279c6;fill-opacity:1;fill-rule:nonzero;stroke:none"
         id="path80" />
      <path
         d="m 948.945,1134.44 c -2.89,-9.9 -14.449,-17.33 -25.832,-16.68 -11.328,0.64 -18.16,9.1 -15.226,18.93 2.886,9.86 14.429,17.41 25.758,16.81 11.332,-0.61 18.191,-9.16 15.3,-19.06"
         style="fill:#4279c6;fill-opacity:1;fill-rule:nonzero;stroke:none"
         id="path82" />
      <path
         d="m 1000.03,1190.22 c 2.55,-9.07 -5.096,-19.03 -17.014,-22.25 -11.942,-3.23 -23.629,1.42 -26.129,10.42 -2.5,9.01 5.078,19.01 16.949,22.32 11.898,3.31 23.629,-1.4 26.194,-10.49"
         style="fill:#4279c6;fill-opacity:1;fill-rule:nonzero;stroke:none"
         id="path84" />
      <path
         d="m 574.797,1291.7 c -9.281,5.61 -23.652,3.92 -32.121,-3.74 -8.473,-7.67 -7.871,-18.37 1.277,-23.92 9.184,-5.55 23.563,-3.87 32.152,3.73 8.532,7.61 7.95,18.32 -1.308,23.93"
         style="fill:#4279c6;fill-opacity:1;fill-rule:nonzero;stroke:none"
         id="path86" />
      <path
         d="m 611.863,1337.12 c -6.187,7.92 -20.008,9.78 -30.84,4.17 -10.796,-5.62 -14.589,-16.54 -8.457,-24.4 6.098,-7.84 19.848,-9.66 30.75,-4.1 10.879,5.56 14.719,16.43 8.547,24.33"
         style="fill:#4279c6;fill-opacity:1;fill-rule:nonzero;stroke:none"
         id="path88" />
      <path
         d="m 655.004,1380.37 c 0.25,10.41 -9.117,17.88 -20.918,16.66 -11.723,-1.25 -21.473,-10.72 -21.723,-21.08 -0.277,-10.35 9.012,-17.74 20.782,-16.52 11.82,1.18 21.609,10.55 21.859,20.94"
         style="fill:#4279c6;fill-opacity:1;fill-rule:nonzero;stroke:none"
         id="path90" />
      <path
         d="m 705.574,1423.57 c 6.563,10.53 4.34,22.38 -4.98,26.43 -9.297,4.01 -22.11,-1.3 -28.699,-11.84 -6.579,-10.52 -4.391,-22.23 4.929,-26.25 9.301,-4.04 22.172,1.15 28.75,11.66"
         style="fill:#4279c6;fill-opacity:1;fill-rule:nonzero;stroke:none"
         id="path92" />
      <path
         d="m 766.086,1465.67 c 12.168,6.23 20.539,19.01 18.699,28.48 -1.851,9.44 -13.23,11.99 -25.422,5.7 -12.207,-6.26 -20.527,-18.9 -18.617,-28.29 1.828,-9.43 13.188,-12.08 25.34,-5.89"
         style="fill:#4279c6;fill-opacity:1;fill-rule:nonzero;stroke:none"
         id="path94" />
      <path
         d="m 834.387,1508.8 c 12.66,-0.3 30.797,9.29 40.468,21.39 9.649,12.09 7.09,22.02 -5.691,22.23 -12.789,0.22 -30.82,-9.3 -40.391,-21.29 -9.527,-11.99 -7.058,-22 5.614,-22.33"
         style="fill:#4279c6;fill-opacity:1;fill-rule:nonzero;stroke:none"
         id="path96" />
      <path
         d="m 549.004,1029.01 c 0.172,-7.8 11.312,-10.48 24.84,-6.01 13.519,4.48 24.441,14.45 24.41,22.33 -0.02,7.87 -11.059,10.6 -24.731,6.07 -13.687,-4.53 -24.679,-14.58 -24.519,-22.39"
         style="fill:#4279c6;fill-opacity:1;fill-rule:nonzero;stroke:none"
         id="path98" />
      <path
         d="m 513.156,1075.85 c -8.332,-8.08 -6.172,-16.64 4.75,-19.12 10.879,-2.52 26.418,2.01 34.84,10.09 8.438,8.1 6.457,16.69 -4.492,19.19 -11,2.48 -26.731,-2.07 -35.098,-10.16"
         style="fill:#4279c6;fill-opacity:1;fill-rule:nonzero;stroke:none"
         id="path100" />
      <path
         d="m 503.566,1129 c -11.39,-6.8 -13.992,-16.36 -5.921,-21.34 8.011,-4.98 23.652,-3.51 35,3.3 11.429,6.81 14.23,16.38 6.218,21.37 -8.047,4.98 -23.898,3.49 -35.297,-3.33"
         style="fill:#4279c6;fill-opacity:1;fill-rule:nonzero;stroke:none"
         id="path102" />
      <path
         d="m 517.254,1187.94 c -13.277,-2.12 -23.328,-10.71 -22.481,-19.17 0.821,-8.45 12.133,-13.55 25.372,-11.44 13.242,2.13 23.421,10.7 22.671,19.14 -0.781,8.44 -12.261,13.58 -25.562,11.47"
         style="fill:#4279c6;fill-opacity:1;fill-rule:nonzero;stroke:none"
         id="path104" />
      <path
         d="m 540.926,1240.56 c -12.43,1.57 -25.742,-4.36 -29.731,-13.22 -3.992,-8.87 2.739,-17.29 15.071,-18.83 12.347,-1.53 25.711,4.37 29.808,13.2 4.102,8.84 -2.711,17.28 -15.148,18.85"
         style="fill:#4279c6;fill-opacity:1;fill-rule:nonzero;stroke:none"
         id="path106" />
      <path
         d="m 985.824,1259.23 c 11.02,-0.29 16.436,-5.96 12.071,-12.68 -4.34,-6.72 -16.68,-11.95 -27.579,-11.69 -10.871,0.27 -16.293,5.94 -12.089,12.66 4.218,6.73 16.589,11.97 27.597,11.71"
         style="fill:#6d91d3;fill-opacity:1;fill-rule:nonzero;stroke:none"
         id="path108" />
      <path
         d="m 994.594,1298.28 c 12.096,2.2 21.466,-1.23 20.926,-7.63 -0.57,-6.42 -10.78,-13.4 -22.786,-15.58 -12,-2.19 -21.269,1.23 -20.808,7.64 0.461,6.41 10.597,13.38 22.668,15.57"
         style="fill:#6d91d3;fill-opacity:1;fill-rule:nonzero;stroke:none"
         id="path110" />
      <path
         d="m 999.465,1337.56 c 11.925,4.28 24.295,3.44 27.605,-1.88 3.28,-5.34 -3.69,-13.12 -15.56,-17.4 -11.834,-4.28 -24.096,-3.43 -27.416,1.89 -3.399,5.33 3.492,13.1 15.371,17.39"
         style="fill:#6d91d3;fill-opacity:1;fill-rule:nonzero;stroke:none"
         id="path112" />
      <path
         d="m 992.484,1374.35 c 9.296,7.09 23.856,11.31 32.506,9.38 8.61,-1.92 7.99,-9.25 -1.31,-16.34 -9.24,-7.09 -23.65,-11.24 -32.246,-9.31 -8.637,1.91 -8.2,9.18 1.05,16.27"
         style="fill:#6d91d3;fill-opacity:1;fill-rule:nonzero;stroke:none"
         id="path114" />
      <path
         d="m 981.066,1408.09 c 4.649,7.72 17.989,15.74 29.734,17.91 11.7,2.15 17.34,-2.38 12.61,-10.13 -4.66,-7.72 -17.87,-15.68 -29.555,-17.8 -11.671,-2.15 -17.429,2.34 -12.789,10.02"
         style="fill:#6d91d3;fill-opacity:1;fill-rule:nonzero;stroke:none"
         id="path116" />
      <path
         d="m 939.125,1444.83 c -1.051,6.85 9.031,17.91 22.5,24.67 13.441,6.76 25.051,6.61 26,-0.29 0.93,-6.92 -9.07,-17.92 -22.43,-24.61 -13.32,-6.71 -25.019,-6.61 -26.07,0.23"
         style="fill:#6d91d3;fill-opacity:1;fill-rule:nonzero;stroke:none"
         id="path118" />
      <path
         d="m 857.855,1457.52 c -8.082,3.36 -5.281,14.36 6.282,24.59 11.558,10.23 27.386,15.72 35.379,12.29 7.98,-3.46 5.16,-14.48 -6.289,-24.59 -11.442,-10.13 -27.25,-15.62 -35.372,-12.29"
         style="fill:#6d91d3;fill-opacity:1;fill-rule:nonzero;stroke:none"
         id="path120" />
      <path
         d="m 685.203,1032.33 c -8.258,0.26 -11.406,6.94 -7.019,14.87 4.351,7.95 14.613,14.23 22.921,14.06 8.282,-0.18 11.418,-6.83 7.008,-14.87 -4.418,-8.02 -14.679,-14.32 -22.91,-14.06"
         style="fill:#6d91d3;fill-opacity:1;fill-rule:nonzero;stroke:none"
         id="path122" />
      <path
         d="m 751.336,1045.03 c -8.91,-1.23 -13.859,4.25 -11.039,12.24 2.777,7.96 12.297,15.46 21.269,16.77 8.95,1.33 13.93,-4.11 11.079,-12.15 -2.86,-8.04 -12.399,-15.61 -21.309,-16.86"
         style="fill:#6d91d3;fill-opacity:1;fill-rule:nonzero;stroke:none"
         id="path124" />
      <path
         d="m 824.426,1074.16 c -8.653,-4.93 -17.821,-3.67 -20.512,2.8 -2.668,6.43 2.16,15.67 10.801,20.65 8.672,5.01 17.871,3.84 20.57,-2.65 2.66,-6.51 -2.211,-15.84 -10.859,-20.8"
         style="fill:#6d91d3;fill-opacity:1;fill-rule:nonzero;stroke:none"
         id="path126" />
      <path
         d="m 883.086,1114.8 c -7.141,-6.8 -17.41,-8.55 -22.992,-3.95 -5.571,4.59 -4.328,13.79 2.801,20.61 7.109,6.82 17.41,8.69 22.992,4.11 5.59,-4.61 4.308,-13.93 -2.801,-20.77"
         style="fill:#6d91d3;fill-opacity:1;fill-rule:nonzero;stroke:none"
         id="path128" />
      <path
         d="m 935.246,1165.24 c -0.633,-7.54 -8.961,-14.17 -18.59,-14.83 -9.64,-0.66 -16.902,4.86 -16.25,12.39 0.66,7.55 8.938,14.26 18.559,14.97 9.609,0.66 16.91,-4.95 16.281,-12.53"
         style="fill:#6d91d3;fill-opacity:1;fill-rule:nonzero;stroke:none"
         id="path130" />
      <path
         d="m 967.934,1211.41 c 3.793,-6.42 -0.797,-14.5 -10.207,-18.06 -9.43,-3.58 -20.071,-1.34 -23.782,5.04 -3.761,6.38 0.801,14.49 10.18,18.11 9.359,3.62 20.02,1.34 23.809,-5.09"
         style="fill:#6d91d3;fill-opacity:1;fill-rule:nonzero;stroke:none"
         id="path132" />
      <path
         d="m 593.145,1243.45 c -8.758,3.19 -20.508,0.52 -26.219,-5.96 -5.711,-6.5 -3.281,-14.32 5.41,-17.46 8.687,-3.17 20.437,-0.49 26.219,5.95 5.808,6.46 3.371,14.28 -5.41,17.47"
         style="fill:#6d91d3;fill-opacity:1;fill-rule:nonzero;stroke:none"
         id="path134" />
      <path
         d="m 615.984,1280.58 c -6.621,5.2 -18.539,5.19 -26.578,-0.03 -8.051,-5.22 -9.25,-13.63 -2.691,-18.79 6.539,-5.15 18.398,-5.12 26.519,0.07 8.121,5.17 9.391,13.57 2.75,18.75"
         style="fill:#6d91d3;fill-opacity:1;fill-rule:nonzero;stroke:none"
         id="path136" />
      <path
         d="m 644.324,1316.7 c -1.679,7.7 -10.879,12.25 -20.539,10.16 -9.64,-2.1 -16.082,-10.02 -14.398,-17.68 1.629,-7.65 10.758,-12.14 20.41,-10.06 9.687,2.05 16.199,9.91 14.527,17.58"
         style="fill:#6d91d3;fill-opacity:1;fill-rule:nonzero;stroke:none"
         id="path138" />
      <path
         d="m 678.875,1353.55 c 3.57,8.41 -0.441,16.91 -8.969,18.95 -8.511,2.01 -18.32,-3.2 -21.91,-11.6 -3.609,-8.37 0.391,-16.78 8.899,-18.81 8.5,-2.04 18.371,3.08 21.98,11.46"
         style="fill:#6d91d3;fill-opacity:1;fill-rule:nonzero;stroke:none"
         id="path140" />
      <path
         d="m 720.164,1388.86 c 8.961,5.54 13.621,15.72 10.43,22.72 -3.18,6.96 -13.071,8.07 -22.039,2.49 -8.981,-5.56 -13.641,-15.66 -10.461,-22.58 3.23,-6.95 13.101,-8.14 22.07,-2.63"
         style="fill:#6d91d3;fill-opacity:1;fill-rule:nonzero;stroke:none"
         id="path142" />
      <path
         d="m 771.555,1429.26 c 10.55,0.76 23.832,9.35 29.66,19.16 5.801,9.8 1.879,17.04 -8.738,16.21 -10.633,-0.84 -23.864,-9.36 -29.59,-19.08 -5.762,-9.73 -1.891,-17.03 8.668,-16.29"
         style="fill:#6d91d3;fill-opacity:1;fill-rule:nonzero;stroke:none"
         id="path144" />
      <path
         d="m 619.156,1047.63 c 1.528,-5.71 11.379,-6.57 21.899,-1.91 10.531,4.64 17.859,13.06 16.41,18.86 -1.442,5.79 -11.199,6.69 -21.82,1.99 -10.641,-4.72 -18.051,-13.21 -16.489,-18.94"
         style="fill:#6d91d3;fill-opacity:1;fill-rule:nonzero;stroke:none"
         id="path146" />
      <path
         d="m 580.613,1078.51 c -5.527,-6.79 -2.148,-12.86 7.442,-13.6 9.558,-0.75 21.789,4.12 27.379,10.91 5.613,6.81 2.39,12.93 -7.239,13.65 -9.66,0.74 -22.05,-4.19 -27.582,-10.96"
         style="fill:#6d91d3;fill-opacity:1;fill-rule:nonzero;stroke:none"
         id="path148" />
      <path
         d="m 562.926,1116.64 c -8.281,-6.15 -8.742,-13.44 -1.071,-16.31 7.579,-2.86 20.45,-0.19 28.739,5.94 8.332,6.17 8.941,13.49 1.32,16.36 -7.648,2.85 -20.641,0.16 -28.988,-5.99"
         style="fill:#6d91d3;fill-opacity:1;fill-rule:nonzero;stroke:none"
         id="path150" />
      <path
         d="m 563.734,1161.36 c -10.757,-2.9 -17.597,-10.22 -15.347,-16.34 2.199,-6.16 12.636,-8.77 23.297,-5.88 10.742,2.89 17.711,10.21 15.562,16.35 -2.199,6.12 -12.73,8.76 -23.512,5.87"
         style="fill:#6d91d3;fill-opacity:1;fill-rule:nonzero;stroke:none"
         id="path152" />
      <path
         d="m 574.055,1202.43 c -10.731,-0.09 -20.782,-5.78 -22.52,-12.7 -1.75,-6.92 5.41,-12.45 16.039,-12.34 10.61,0.11 20.762,5.79 22.59,12.69 1.84,6.92 -5.391,12.44 -16.109,12.35"
         style="fill:#6d91d3;fill-opacity:1;fill-rule:nonzero;stroke:none"
         id="path154" />
      <path
         d="m 939.574,1258.19 c 9.231,0.88 14.789,-2.73 12.371,-8.09 -2.39,-5.35 -11.742,-10.41 -20.898,-11.3 -9.152,-0.9 -14.672,2.71 -12.371,8.07 2.308,5.33 11.679,10.41 20.898,11.32"
         style="fill:#9bb0e0;fill-opacity:1;fill-rule:nonzero;stroke:none"
         id="path156" />
      <path
         d="m 939.863,1287.67 c 9.731,2.82 18.16,1.25 18.84,-3.51 0.684,-4.75 -6.59,-10.87 -16.199,-13.68 -9.617,-2.8 -17.988,-1.21 -18.738,3.53 -0.801,4.75 6.418,10.86 16.097,13.66"
         style="fill:#9bb0e0;fill-opacity:1;fill-rule:nonzero;stroke:none"
         id="path158" />
      <path
         d="m 936.836,1316.94 c 9.148,4.34 19.66,4.96 23.367,1.39 3.692,-3.58 -0.75,-9.99 -9.859,-14.31 -9.11,-4.32 -19.481,-4.92 -23.219,-1.35 -3.781,3.57 0.559,9.96 9.711,14.27"
         style="fill:#9bb0e0;fill-opacity:1;fill-rule:nonzero;stroke:none"
         id="path160" />
      <path
         d="m 924.375,1343.2 c 6.449,6.11 17.871,10.66 25.422,10.13 7.519,-0.56 8.348,-5.99 1.867,-12.11 -6.437,-6.12 -17.719,-10.6 -25.25,-10.06 -7.539,0.55 -8.488,5.93 -2.039,12.04"
         style="fill:#9bb0e0;fill-opacity:1;fill-rule:nonzero;stroke:none"
         id="path162" />
      <path
         d="m 903.426,1370.72 c 2.48,6.12 12.168,13.33 21.59,16.09 9.39,2.75 14.89,-0.01 12.347,-6.16 -2.5,-6.12 -12.09,-13.28 -21.429,-16.01 -9.368,-2.73 -14.981,-0.01 -12.508,6.08"
         style="fill:#9bb0e0;fill-opacity:1;fill-rule:nonzero;stroke:none"
         id="path164" />
      <path
         d="m 864.246,1391.9 c -2.109,4.92 4.34,14.04 14.34,20.34 10,6.3 19.719,7.35 21.769,2.36 2.02,-4.97 -4.351,-14.03 -14.269,-20.25 -9.93,-6.26 -19.731,-7.36 -21.84,-2.45"
         style="fill:#9bb0e0;fill-opacity:1;fill-rule:nonzero;stroke:none"
         id="path166" />
      <path
         d="m 794.184,1388.89 c -7.27,1.98 -6.789,10.4 1.05,18.8 7.832,8.38 20,13.54 27.192,11.49 7.211,-2.06 6.719,-10.49 -1.031,-18.8 -7.782,-8.32 -19.961,-13.46 -27.211,-11.49"
         style="fill:#9bb0e0;fill-opacity:1;fill-rule:nonzero;stroke:none"
         id="path168" />
      <path
         d="m 729.535,1061.91 c -6.922,-0.63 -10.75,3.95 -8.539,10.2 2.207,6.26 9.617,11.89 16.598,12.58 6.953,0.72 10.781,-3.85 8.551,-10.18 -2.239,-6.34 -9.68,-11.98 -16.61,-12.6"
         style="fill:#9bb0e0;fill-opacity:1;fill-rule:nonzero;stroke:none"
         id="path170" />
      <path
         d="m 782.465,1077.82 c -7.231,-1.79 -12.32,1.74 -11.43,7.86 0.899,6.11 7.481,12.56 14.731,14.42 7.23,1.87 12.359,-1.61 11.449,-7.79 -0.942,-6.2 -7.52,-12.7 -14.75,-14.49"
         style="fill:#9bb0e0;fill-opacity:1;fill-rule:nonzero;stroke:none"
         id="path172" />
      <path
         d="m 838.234,1106.45 c -6.328,-4.47 -14.218,-4.46 -17.64,0.01 -3.399,4.45 -1.028,11.7 5.301,16.22 6.332,4.53 14.25,4.58 17.64,0.1 3.418,-4.49 1.039,-11.82 -5.301,-16.33"
         style="fill:#9bb0e0;fill-opacity:1;fill-rule:nonzero;stroke:none"
         id="path174" />
      <path
         d="m 879.875,1142.1 c -4.711,-5.7 -12.988,-8.01 -18.469,-5.17 -5.48,2.8 -6.101,9.65 -1.371,15.36 4.699,5.71 12.961,8.11 18.43,5.3 5.488,-2.81 6.121,-9.77 1.41,-15.49"
         style="fill:#9bb0e0;fill-opacity:1;fill-rule:nonzero;stroke:none"
         id="path176" />
      <path
         d="m 914.324,1184.27 c 0.832,-5.61 -4.949,-11.29 -12.871,-12.74 -7.906,-1.43 -14.976,1.89 -15.777,7.48 -0.801,5.58 4.91,11.3 12.801,12.8 7.886,1.46 15.007,-1.93 15.847,-7.54"
         style="fill:#9bb0e0;fill-opacity:1;fill-rule:nonzero;stroke:none"
         id="path178" />
      <path
         d="m 933.273,1221.36 c 4.34,-4.32 1.954,-10.7 -5.25,-14.24 -7.218,-3.57 -16.507,-2.99 -20.757,1.3 -4.262,4.29 -1.95,10.71 5.211,14.29 7.16,3.6 16.519,2.99 20.796,-1.35"
         style="fill:#9bb0e0;fill-opacity:1;fill-rule:nonzero;stroke:none"
         id="path180" />
      <path
         d="m 614.566,1207.42 c -7.89,1.47 -17.23,-1.67 -20.812,-6.99 -3.59,-5.33 -0.16,-10.81 7.672,-12.26 7.82,-1.44 17.148,1.68 20.828,6.99 3.672,5.3 0.25,10.79 -7.688,12.26"
         style="fill:#9bb0e0;fill-opacity:1;fill-rule:nonzero;stroke:none"
         id="path182" />
      <path
         d="m 626.934,1236.91 c -6.45,3.14 -16.399,1.95 -22.18,-2.68 -5.758,-4.62 -5.25,-10.91 1.141,-14.03 6.402,-3.13 16.289,-1.93 22.14,2.69 5.852,4.61 5.371,10.87 -1.101,14.02"
         style="fill:#9bb0e0;fill-opacity:1;fill-rule:nonzero;stroke:none"
         id="path184" />
      <path
         d="m 644.094,1266.21 c -2.821,5.47 -11.328,7.89 -18.989,5.39 -7.671,-2.49 -11.621,-8.94 -8.832,-14.39 2.743,-5.44 11.172,-7.82 18.864,-5.34 7.718,2.48 11.726,8.89 8.957,14.34"
         style="fill:#9bb0e0;fill-opacity:1;fill-rule:nonzero;stroke:none"
         id="path186" />
      <path
         d="m 666.254,1296.65 c 1.48,6.53 -3.399,12.34 -10.899,13 -7.46,0.63 -14.71,-4.17 -16.199,-10.68 -1.492,-6.51 3.348,-12.26 10.828,-12.9 7.481,-0.65 14.77,4.09 16.27,10.58"
         style="fill:#9bb0e0;fill-opacity:1;fill-rule:nonzero;stroke:none"
         id="path188" />
      <path
         d="m 689.887,1325.99 c 5.5,5.78 6.168,13.99 1.527,18.31 -4.668,4.28 -12.891,3.03 -18.398,-2.8 -5.5,-5.79 -6.192,-13.92 -1.532,-18.18 4.641,-4.28 12.891,-3.09 18.403,2.67"
         style="fill:#9bb0e0;fill-opacity:1;fill-rule:nonzero;stroke:none"
         id="path190" />
      <path
         d="m 729.773,1361.5 c 8.602,1.17 18.161,8.37 21.364,16.08 3.187,7.68 -1.242,12.91 -9.871,11.68 -8.621,-1.22 -18.172,-8.38 -21.313,-16 -3.137,-7.64 1.25,-12.91 9.82,-11.76"
         style="fill:#9bb0e0;fill-opacity:1;fill-rule:nonzero;stroke:none"
         id="path192" />
      <path
         d="m 671.613,1066.52 c 2.332,-4.03 10.711,-3.67 18.653,0.79 7.961,4.44 12.55,11.35 10.281,15.46 -2.223,4.11 -10.531,3.79 -18.563,-0.73 -8.039,-4.51 -12.679,-11.47 -10.371,-15.52"
         style="fill:#9bb0e0;fill-opacity:1;fill-rule:nonzero;stroke:none"
         id="path194" />
      <path
         d="m 633.887,1085.3 c -3.403,-5.5 0.5,-9.63 8.668,-9.22 8.121,0.41 17.449,5.21 20.898,10.73 3.442,5.56 -0.34,9.72 -8.519,9.29 -8.207,-0.44 -17.629,-5.27 -21.047,-10.8"
         style="fill:#9bb0e0;fill-opacity:1;fill-rule:nonzero;stroke:none"
         id="path196" />
      <path
         d="m 612.254,1111.48 c -5.828,-5.33 -4.891,-10.73 2.012,-12.05 6.89,-1.33 17.14,1.9 22.949,7.23 5.84,5.35 5.039,10.76 -1.828,12.11 -6.922,1.33 -17.293,-1.94 -23.133,-7.29"
         style="fill:#9bb0e0;fill-opacity:1;fill-rule:nonzero;stroke:none"
         id="path198" />
      <path
         d="m 604.844,1144.33 c -8.469,-3.19 -12.867,-9.23 -9.86,-13.51 2.942,-4.28 12.11,-5.15 20.5,-1.96 8.442,3.17 12.961,9.24 10.051,13.51 -2.941,4.27 -12.219,5.15 -20.691,1.96"
         style="fill:#9bb0e0;fill-opacity:1;fill-rule:nonzero;stroke:none"
         id="path200" />
      <path
         d="m 606.035,1175.45 c -8.949,-1.12 -16.308,-6.31 -16.488,-11.55 -0.242,-5.25 6.726,-8.58 15.598,-7.44 8.851,1.14 16.281,6.3 16.582,11.55 0.277,5.26 -6.762,8.58 -15.692,7.44"
         style="fill:#9bb0e0;fill-opacity:1;fill-rule:nonzero;stroke:none"
         id="path202" />
      <path
         d="m 899.445,1251.71 c 7.481,1.57 12.731,-0.51 11.7,-4.63 -1.04,-4.14 -7.891,-8.77 -15.301,-10.31 -7.418,-1.55 -12.668,0.52 -11.699,4.65 0.96,4.11 7.82,8.73 15.3,10.29"
         style="fill:#cbd5ef;fill-opacity:1;fill-rule:nonzero;stroke:none"
         id="path204" />
      <path
         d="m 894.395,1273.19 c 7.531,3.01 14.789,2.7 16.218,-0.68 1.403,-3.4 -3.508,-8.57 -10.968,-11.56 -7.45,-2.99 -14.668,-2.67 -16.149,0.72 -1.512,3.36 3.348,8.52 10.899,11.52"
         style="fill:#cbd5ef;fill-opacity:1;fill-rule:nonzero;stroke:none"
         id="path206" />
      <path
         d="m 886.605,1294.94 c 6.84,4.06 15.399,5.55 19.141,3.32 3.688,-2.24 1.168,-7.33 -5.621,-11.38 -6.738,-4.04 -15.262,-5.49 -19,-3.27 -3.762,2.21 -1.309,7.28 5.48,11.33"
         style="fill:#cbd5ef;fill-opacity:1;fill-rule:nonzero;stroke:none"
         id="path208" />
      <path
         d="m 870.996,1315.49 c 4.27,5.08 12.891,9.52 19.25,9.87 6.348,0.35 7.981,-3.52 3.731,-8.61 -4.243,-5.08 -12.793,-9.46 -19.122,-9.8 -6.359,-0.36 -8.109,3.46 -3.859,8.54"
         style="fill:#cbd5ef;fill-opacity:1;fill-rule:nonzero;stroke:none"
         id="path210" />
      <path
         d="m 847.953,1336.92 c 0.953,4.69 7.711,10.9 14.981,13.84 7.312,2.93 12.39,1.46 11.363,-3.25 -0.992,-4.71 -7.641,-10.86 -14.891,-13.75 -7.269,-2.93 -12.429,-1.52 -11.453,3.16"
         style="fill:#cbd5ef;fill-opacity:1;fill-rule:nonzero;stroke:none"
         id="path212" />
      <path
         d="m 804.145,1347.06 c -2.02,3.76 2.839,10.3 10.851,14.59 7.981,4.28 16.027,4.65 17.981,0.83 1.968,-3.78 -2.84,-10.27 -10.782,-14.51 -7.961,-4.25 -16.039,-4.66 -18.05,-0.91"
         style="fill:#cbd5ef;fill-opacity:1;fill-rule:nonzero;stroke:none"
         id="path214" />
      <path
         d="m 747.484,1336.47 c -6.019,1.29 -6.73,7.42 -1.558,13.7 5.129,6.27 14.129,10.27 20.097,8.95 5.954,-1.36 6.653,-7.48 1.551,-13.7 -5.07,-6.22 -14.078,-10.23 -20.09,-8.95"
         style="fill:#cbd5ef;fill-opacity:1;fill-rule:nonzero;stroke:none"
         id="path216" />
      <path
         d="m 760.586,1088.21 c -5.633,-1.14 -9.621,1.8 -8.91,6.56 0.719,4.77 5.847,9.6 11.5,10.81 5.64,1.19 9.609,-1.75 8.918,-6.57 -0.731,-4.82 -5.891,-9.65 -11.508,-10.8"
         style="fill:#cbd5ef;fill-opacity:1;fill-rule:nonzero;stroke:none"
         id="path218" />
      <path
         d="m 801.574,1105.03 c -5.64,-2.03 -10.508,0.03 -10.84,4.57 -0.371,4.54 3.922,9.88 9.61,11.96 5.64,2.05 10.531,0.04 10.871,-4.54 0.34,-4.59 -3.969,-9.97 -9.641,-11.99"
         style="fill:#cbd5ef;fill-opacity:1;fill-rule:nonzero;stroke:none"
         id="path220" />
      <path
         d="m 842.664,1131.37 c -4.449,-3.89 -11,-4.67 -14.609,-1.75 -3.629,2.91 -2.969,8.41 1.48,12.32 4.442,3.93 10.942,4.75 14.578,1.82 3.621,-2.94 2.973,-8.5 -1.449,-12.39"
         style="fill:#cbd5ef;fill-opacity:1;fill-rule:nonzero;stroke:none"
         id="path222" />
      <path
         d="m 870.746,1161.4 c -2.859,-4.61 -9.32,-7.1 -14.371,-5.6 -5.031,1.5 -6.781,6.43 -3.859,11.05 2.839,4.61 9.281,7.17 14.308,5.68 5.039,-1.51 6.813,-6.51 3.922,-11.13"
         style="fill:#cbd5ef;fill-opacity:1;fill-rule:nonzero;stroke:none"
         id="path224" />
      <path
         d="m 891.727,1195.46 c 1.718,-3.97 -2.063,-8.67 -8.34,-10.51 -6.34,-1.83 -12.762,-0.11 -14.434,3.87 -1.68,3.98 2.012,8.72 8.301,10.58 6.293,1.83 12.769,0.07 14.473,-3.94"
         style="fill:#cbd5ef;fill-opacity:1;fill-rule:nonzero;stroke:none"
         id="path226" />
      <path
         d="m 900.805,1224.32 c 4.371,-2.72 3.539,-7.58 -1.809,-10.88 -5.34,-3.31 -13.141,-3.8 -17.449,-1.11 -4.313,2.71 -3.492,7.6 1.777,10.91 5.281,3.33 13.121,3.8 17.481,1.08"
         style="fill:#cbd5ef;fill-opacity:1;fill-rule:nonzero;stroke:none"
         id="path228" />
      <path
         d="m 639.297,1182.62 c -6.844,0.28 -13.992,-2.92 -16.012,-7.14 -2.019,-4.23 1.809,-7.87 8.539,-8.15 6.742,-0.29 13.922,2.93 16.012,7.13 2.09,4.22 -1.723,7.88 -8.539,8.16"
         style="fill:#cbd5ef;fill-opacity:1;fill-rule:nonzero;stroke:none"
         id="path230" />
      <path
         d="m 644.246,1205.28 c -5.922,1.66 -13.949,-0.21 -17.91,-4.14 -3.949,-3.94 -2.383,-8.44 3.461,-10.08 5.879,-1.66 13.828,0.21 17.848,4.14 4.039,3.93 2.519,8.44 -3.399,10.08"
         style="fill:#cbd5ef;fill-opacity:1;fill-rule:nonzero;stroke:none"
         id="path232" />
      <path
         d="m 653.203,1228.29 c -3.308,3.69 -10.789,4.61 -16.707,2.04 -5.871,-2.58 -8,-7.66 -4.75,-11.34 3.27,-3.68 10.668,-4.59 16.598,-2.02 5.929,2.57 8.133,7.63 4.859,11.32"
         style="fill:#cbd5ef;fill-opacity:1;fill-rule:nonzero;stroke:none"
         id="path234" />
      <path
         d="m 666.113,1252.61 c 0.071,4.89 -5.019,8.64 -11.359,8.37 -6.309,-0.28 -11.438,-4.48 -11.481,-9.37 -0.097,-4.87 4.922,-8.59 11.262,-8.31 6.309,0.27 11.512,4.44 11.578,9.31"
         style="fill:#cbd5ef;fill-opacity:1;fill-rule:nonzero;stroke:none"
         id="path236" />
      <path
         d="m 680.426,1276.29 c 3.508,4.75 2.621,10.78 -2.02,13.45 -4.633,2.65 -11.211,0.92 -14.73,-3.85 -3.5,-4.77 -2.629,-10.74 1.969,-13.37 4.609,-2.66 11.25,-0.97 14.781,3.77"
         style="fill:#cbd5ef;fill-opacity:1;fill-rule:nonzero;stroke:none"
         id="path238" />
      <path
         d="m 700.613,1302.35 c 6.774,1.58 13.141,7.74 14.282,13.73 1.089,5.97 -3.5,9.5 -10.258,7.87 -6.793,-1.63 -13.172,-7.76 -14.25,-13.68 -1.102,-5.94 3.488,-9.49 10.226,-7.92"
         style="fill:#cbd5ef;fill-opacity:1;fill-rule:nonzero;stroke:none"
         id="path240" />
      <path
         d="m 711.785,1085.84 c 2.641,-2.71 9.52,-1.62 15.301,2.41 5.777,4.02 8.367,9.5 5.758,12.27 -2.59,2.75 -9.399,1.71 -15.258,-2.38 -5.84,-4.08 -8.461,-9.58 -5.801,-12.3"
         style="fill:#cbd5ef;fill-opacity:1;fill-rule:nonzero;stroke:none"
         id="path242" />
      <path
         d="m 677.145,1095.74 c -1.809,-4.34 2.16,-6.95 8.839,-5.84 6.653,1.1 13.532,5.52 15.391,9.88 1.852,4.37 -2.02,7.02 -8.719,5.91 -6.722,-1.14 -13.672,-5.59 -15.511,-9.95"
         style="fill:#cbd5ef;fill-opacity:1;fill-rule:nonzero;stroke:none"
         id="path244" />
      <path
         d="m 654.523,1112.64 c -3.859,-4.46 -2.109,-8.28 3.864,-8.56 5.918,-0.29 13.828,3.07 17.699,7.52 3.879,4.46 2.23,8.32 -3.723,8.62 -5.937,0.28 -13.937,-3.13 -17.84,-7.58"
         style="fill:#cbd5ef;fill-opacity:1;fill-rule:nonzero;stroke:none"
         id="path246" />
      <path
         d="m 642.504,1135.78 c -6.43,-3.15 -8.957,-8 -5.758,-10.81 3.238,-2.81 10.988,-2.53 17.359,0.61 6.411,3.15 9.059,8.01 5.899,10.83 -3.199,2.8 -11.051,2.52 -17.5,-0.63"
         style="fill:#cbd5ef;fill-opacity:1;fill-rule:nonzero;stroke:none"
         id="path248" />
      <path
         d="m 637.914,1158.54 c -7.18,-1.71 -12.359,-6.21 -11.578,-10.03 0.777,-3.85 7.129,-5.57 14.269,-3.87 7.098,1.71 12.34,6.2 11.649,10.05 -0.707,3.84 -7.129,5.56 -14.34,3.85"
         style="fill:#cbd5ef;fill-opacity:1;fill-rule:nonzero;stroke:none"
         id="path250" />
      <path
         d="m 432.453,764.32 h -11.09 v 51.078 h 11.09 c 14.313,0 23.184,-3.269 23.184,-25.539 0,-21.75 -8.871,-25.539 -23.184,-25.539 m 2.402,43.141 h -3.281 v -35.18 h 2.711 c 6.93,0 11.18,2.41 11.18,17.578 0,15.039 -4.031,17.602 -10.61,17.602"
         style="fill:#1a66ba;fill-opacity:1;fill-rule:nonzero;stroke:none"
         id="path252" />
      <path
         d="m 434.844,807.461 h -3.278 v -35.18 h 2.719 c 6.918,0 11.168,2.41 11.168,17.578 0,15.039 -4.027,17.602 -10.609,17.602 m -2.399,-43.141 h -11.082 v 51.078 h 11.082 c 14.321,0 23.18,-3.269 23.18,-25.539 0,-21.75 -8.859,-25.539 -23.18,-25.539"
         style="fill:#1a66ba;fill-opacity:1;fill-rule:nonzero;stroke:none"
         id="path254" />
      <path
         d="m 496.887,806.719 h -17.871 v -11.008 h 15.328 v -7.883 H 479.016 V 773 h 18.238 v -8.68 h -28.481 v 51.078 h 28.872 l -0.758,-8.679 v 0"
         style="fill:#1a66ba;fill-opacity:1;fill-rule:nonzero;stroke:none"
         id="path256" />
      <path
         d="m 524.855,763.602 c -12.851,0 -16.66,5.757 -16.66,16.48 v 35.328 h 10.231 v -35.031 c 0,-6.27 1.679,-8.617 6.429,-8.617 4.379,0 6.43,2.199 6.43,8.617 v 35.031 h 10.199 v -35.328 c 0,-10.434 -4.289,-16.48 -16.629,-16.48"
         style="fill:#1a66ba;fill-opacity:1;fill-rule:nonzero;stroke:none"
         id="path258" />
      <path
         d="m 584.477,806.66 h -11.243 v -42.332 h -10.23 v 42.332 h -12.391 v 8.75 h 35.032 l -1.168,-8.75 v 0"
         style="fill:#1a66ba;fill-opacity:1;fill-rule:nonzero;stroke:none"
         id="path260" />
      <path
         d="m 602.566,763.602 c -6.48,0 -12.113,1.82 -12.113,1.82 v 8.769 c 0,0 7.16,-2.203 10.66,-2.203 4.16,0 7.883,1.242 7.883,6.203 0,4.528 -2.641,5.918 -6.133,7.887 l -4.617,2.563 c -4.269,2.398 -8.223,6.121 -8.223,13.347 0,11.172 9.172,14.16 15.891,14.16 7.16,0 11.102,-1.976 11.102,-1.976 v -8.332 c 0,0 -5.481,2.14 -10.34,2.14 -3.672,0 -6.59,-1.32 -6.59,-5.421 0,-3.559 2.32,-5.028 5.328,-6.688 l 4.383,-2.43 c 4.648,-2.55 9.406,-6.269 9.406,-14.882 0,-12.481 -9.34,-14.957 -16.637,-14.957"
         style="fill:#1a66ba;fill-opacity:1;fill-rule:nonzero;stroke:none"
         id="path262" />
      <path
         d="m 646.805,763.602 c -8.539,0 -18.11,2.699 -18.11,26.257 0,23.653 12.051,26.289 19.071,26.289 5.757,0 9.398,-1.828 9.398,-1.828 v -8.25 c 0,0 -4.969,1.758 -8.898,1.758 -4.981,0 -9.36,-2.988 -9.36,-17.969 0,-13.339 3.141,-17.871 8.617,-17.871 4.672,0 9.641,1.821 9.641,1.821 v -8.25 c 0,0 -3.879,-1.957 -10.359,-1.957"
         style="fill:#1a66ba;fill-opacity:1;fill-rule:nonzero;stroke:none"
         id="path264" />
      <path
         d="m 692.934,764.32 v 23.508 H 678.316 V 764.32 h -10.203 v 51.078 h 10.203 v -19.687 h 14.618 v 19.687 h 10.203 V 764.32 h -10.203 v 0"
         style="fill:#1a66ba;fill-opacity:1;fill-rule:nonzero;stroke:none"
         id="path266" />
      <path
         d="m 746.566,806.719 h -17.902 v -11.008 h 15.352 v -7.883 H 728.664 V 773 h 18.262 v -8.68 h -28.473 v 51.078 h 28.832 l -0.719,-8.679 v 0"
         style="fill:#1a66ba;fill-opacity:1;fill-rule:nonzero;stroke:none"
         id="path268" />
      <path
         d="m 780.227,764.32 -3.153,11.61 c -1.238,4.672 -3.14,7.961 -4.449,9.351 l -4.18,-0.371 v -20.59 h -10.211 v 51.09 h 14.02 c 10.941,0 18.84,-2.558 18.84,-14.449 0,-8.102 -3.649,-11.902 -9.27,-13.871 1.949,-1.238 3.789,-4.52 5.02,-8.102 l 4.98,-14.668 z m -8.5,42.989 h -3.282 v -15.25 c 6.93,0.652 12.442,1.16 12.442,8.691 0,4.891 -2.641,6.559 -9.16,6.559"
         style="fill:#1a66ba;fill-opacity:1;fill-rule:nonzero;stroke:none"
         id="path270" />
      <path
         d="m 771.727,807.309 h -3.282 v -15.258 c 6.942,0.66 12.442,1.168 12.442,8.699 0,4.879 -2.633,6.559 -9.16,6.559 m 8.5,-42.989 -3.141,11.61 c -1.242,4.66 -3.152,7.961 -4.461,9.351 l -4.18,-0.371 v -20.59 h -10.199 v 51.078 h 14.008 c 10.949,0 18.84,-2.546 18.84,-14.437 0,-8.102 -3.641,-11.902 -9.27,-13.871 1.949,-1.238 3.789,-4.52 5.02,-8.102 l 4.98,-14.668 h -11.597 v 0"
         style="fill:#1a66ba;fill-opacity:1;fill-rule:nonzero;stroke:none"
         id="path272" />
      <path
         d="m 853.695,764.32 h -28.679 v 7.739 l 18.539,34.66 h -18.539 v 8.679 h 29.211 v -7.726 L 835.684,773 h 18.742 l -0.731,-8.68 v 0"
         style="fill:#1a66ba;fill-opacity:1;fill-rule:nonzero;stroke:none"
         id="path274" />
      <path
         d="m 882.395,763.602 c -12.872,0 -16.649,5.757 -16.649,16.48 v 35.328 h 10.219 v -35.031 c 0,-6.27 1.68,-8.617 6.43,-8.617 4.378,0 6.429,2.199 6.429,8.617 v 35.031 h 10.211 v -35.328 c 0,-10.434 -4.32,-16.48 -16.64,-16.48"
         style="fill:#1a66ba;fill-opacity:1;fill-rule:nonzero;stroke:none"
         id="path276" />
      <path
         d="m 913.984,815.41 h 10.231 v -51.082 h -10.231 z m 23.719,-51.808 -12.707,28.457 11.75,23.351 h 11.539 l -13.129,-22.922 13.86,-28.168 -11.313,-0.718 v 0"
         style="fill:#1a66ba;fill-opacity:1;fill-rule:nonzero;stroke:none"
         id="path278" />
      <path
         d="m 924.215,815.41 h -10.231 v -51.082 h 10.231 v 51.082 0"
         style="fill:#1a66ba;fill-opacity:1;fill-rule:evenodd;stroke:none"
         id="path280" />
      <path
         d="m 937.703,763.602 -12.707,28.457 11.75,23.351 h 11.539 l -13.129,-22.922 13.86,-28.168 -11.313,-0.718 v 0"
         style="fill:#1a66ba;fill-opacity:1;fill-rule:nonzero;stroke:none"
         id="path282" />
      <path
         d="m 974.773,763.602 c -12.847,0 -16.66,5.757 -16.66,16.48 v 35.328 h 10.231 v -35.031 c 0,-6.27 1.679,-8.617 6.429,-8.617 4.364,0 6.43,2.199 6.43,8.617 v 35.031 h 10.203 v -35.328 c 0,-10.434 -4.293,-16.48 -16.633,-16.48"
         style="fill:#1a66ba;fill-opacity:1;fill-rule:nonzero;stroke:none"
         id="path284" />
      <path
         d="m 1031.63,764.32 -10.08,20.59 c -3.14,6.422 -6.19,15.102 -6.19,15.102 0,0 1.23,-10.371 1.23,-16.782 v -18.91 h -10.22 v 51.078 h 9.65 l 9.18,-18.75 c 3.66,-7.437 6.43,-15.839 6.43,-15.839 0,0 -1.17,11.179 -1.17,16.8 v 17.789 h 10.23 V 764.32 h -9.06 v 0"
         style="fill:#1a66ba;fill-opacity:1;fill-rule:nonzero;stroke:none"
         id="path286" />
      <path
         d="m 1083.53,806.66 h -17.3 v -10.941 h 15.33 v -7.879 h -15.33 v -23.512 h -10.22 v 51.082 h 28.48 l -0.96,-8.75 v 0"
         style="fill:#1a66ba;fill-opacity:1;fill-rule:nonzero;stroke:none"
         id="path288" />
      <path
         d="m 1122.71,806.66 h -11.23 v -42.332 h -10.23 v 42.332 h -12.39 v 8.75 h 35.02 l -1.17,-8.75 v 0"
         style="fill:#1a66ba;fill-opacity:1;fill-rule:nonzero;stroke:none"
         id="path290" />
      <path
         d="m 1140.83,763.602 c -6.52,0 -12.15,1.82 -12.15,1.82 v 8.769 c 0,0 7.19,-2.203 10.67,-2.203 4.16,0 7.87,1.242 7.87,6.203 0,4.528 -2.62,5.918 -6.12,7.887 l -4.59,2.563 c -4.31,2.398 -8.26,6.121 -8.26,13.347 0,11.172 9.2,14.16 15.92,14.16 7.15,0 11.09,-1.976 11.09,-1.976 v -8.332 c 0,0 -5.47,2.14 -10.35,2.14 -3.67,0 -6.56,-1.32 -6.56,-5.421 0,-3.559 2.3,-5.028 5.31,-6.688 l 4.38,-2.43 c 4.67,-2.55 9.41,-6.269 9.41,-14.882 0,-12.481 -9.33,-14.957 -16.62,-14.957"
         style="fill:#1a66ba;fill-opacity:1;fill-rule:nonzero;stroke:none"
         id="path292" />
      <path
         d="M 1179.35,779.941 V 764.32 h -10.21 v 51.09 h 12.53 c 11.98,0 19.58,-2.699 19.58,-17.5 0,-13.801 -7.82,-17.68 -21.9,-17.969 m 3.36,27.59 h -3.36 V 787.09 c 7.52,0.219 11.66,1.551 11.66,10.82 0,8.879 -3.63,9.621 -8.3,9.621"
         style="fill:#1a66ba;fill-opacity:1;fill-rule:nonzero;stroke:none"
         id="path294" />
      <path
         d="m 1182.71,807.531 h -3.36 V 787.09 c 7.52,0.211 11.66,1.551 11.66,10.808 0,8.891 -3.63,9.633 -8.3,9.633 m -3.36,-27.59 V 764.32 h -10.21 v 51.078 h 12.53 c 11.98,0 19.57,-2.687 19.57,-17.5 0,-13.789 -7.81,-17.668 -21.89,-17.957"
         style="fill:#1a66ba;fill-opacity:1;fill-rule:nonzero;stroke:none"
         id="path296" />
      <path
         d="m 1234.9,764.32 -3.15,11.61 c -1.23,4.672 -3.14,7.961 -4.43,9.351 l -4.18,-0.371 v -20.59 h -10.22 v 51.09 h 14.03 c 10.93,0 18.81,-2.558 18.81,-14.449 0,-8.102 -3.66,-11.902 -9.24,-13.871 1.93,-1.238 3.77,-4.52 5.02,-8.102 l 4.94,-14.668 z m -8.48,42.989 h -3.28 v -15.25 c 6.91,0.652 12.4,1.16 12.4,8.691 0,4.891 -2.64,6.559 -9.12,6.559"
         style="fill:#1a66ba;fill-opacity:1;fill-rule:nonzero;stroke:none"
         id="path298" />
      <path
         d="m 1226.42,807.309 h -3.28 v -15.258 c 6.92,0.66 12.4,1.168 12.4,8.699 0,4.879 -2.63,6.559 -9.12,6.559 m 8.48,-42.989 -3.14,11.61 c -1.24,4.66 -3.15,7.961 -4.44,9.351 l -4.18,-0.371 v -20.59 h -10.21 v 51.078 h 14.02 c 10.94,0 18.81,-2.546 18.81,-14.437 0,-8.102 -3.65,-11.902 -9.24,-13.871 1.93,-1.238 3.77,-4.52 5.02,-8.102 l 4.94,-14.668 h -11.58 v 0"
         style="fill:#1a66ba;fill-opacity:1;fill-rule:nonzero;stroke:none"
         id="path300" />
      <path
         d="m 1286.26,806.719 h -17.87 v -11.008 h 15.33 v -7.883 h -15.33 V 773 h 18.24 v -8.68 h -28.48 v 51.078 H 1287 l -0.74,-8.679 v 0"
         style="fill:#1a66ba;fill-opacity:1;fill-rule:nonzero;stroke:none"
         id="path302" />
      <path
         d="m 1308.31,815.41 h -10.37 v -51.082 h 10.37 v 51.082 0"
         style="fill:#1a66ba;fill-opacity:1;fill-rule:evenodd;stroke:none"
         id="path304" />
      <path
         d="m 1332.53,763.602 c -6.48,0 -12.11,1.82 -12.11,1.82 v 8.769 c 0,0 7.15,-2.203 10.65,-2.203 4.17,0 7.89,1.242 7.89,6.203 0,4.528 -2.62,5.918 -6.14,7.887 l -4.61,2.563 c -4.27,2.398 -8.22,6.121 -8.22,13.347 0,11.172 9.2,14.16 15.92,14.16 7.13,0 11.07,-1.976 11.07,-1.976 v -8.332 c 0,0 -5.45,2.14 -10.37,2.14 -3.65,0 -6.56,-1.32 -6.56,-5.421 0,-3.559 2.34,-5.028 5.33,-6.688 l 4.38,-2.43 c 4.68,-2.55 9.43,-6.269 9.43,-14.882 0,-12.481 -9.36,-14.957 -16.66,-14.957"
         style="fill:#1a66ba;fill-opacity:1;fill-rule:nonzero;stroke:none"
         id="path306" />
      <path
         d="m 426.023,713.961 v -11.152 h -4.519 v 35.14 h 6.371 c 8.25,0 13.219,-2.097 13.219,-11.89 0,-9.188 -5.231,-12.098 -15.071,-12.098 m 1.563,20.07 h -1.563 v -16.609 c 7.774,0.207 10.543,1.918 10.543,8.476 0,7.84 -3.281,8.133 -8.98,8.133"
         style="fill:#1a66ba;fill-opacity:1;fill-rule:nonzero;stroke:none"
         id="path308" />
      <path
         d="m 427.586,734.031 h -1.563 v -16.609 c 7.774,0.207 10.551,1.918 10.551,8.476 0,7.852 -3.277,8.133 -8.988,8.133 m -1.563,-20.07 v -11.152 h -4.519 v 35.14 h 6.383 c 8.238,0 13.207,-2.097 13.207,-11.89 0,-9.18 -5.231,-12.098 -15.071,-12.098"
         style="fill:#1a66ba;fill-opacity:1;fill-rule:nonzero;stroke:none"
         id="path310" />
      <path
         d="m 456.555,725.219 c -2.52,0 -4.168,-2.117 -4.168,-2.117 v -20.293 h -4.524 v 26.613 h 3.473 l 0.629,-3.531 c 0,0 1.558,4.031 5.64,4.031 0.899,0 2.211,-0.301 2.211,-0.301 v -4.922 c 0,0 -1.511,0.52 -3.261,0.52"
         style="fill:#1a66ba;fill-opacity:1;fill-rule:nonzero;stroke:none"
         id="path312" />
      <path
         d="m 482.836,714.711 h -15.039 c 0.199,-8.551 4.258,-8.441 6.84,-8.441 2.539,0 6.867,1.3 6.867,1.3 v -4.019 c 0,0 -3.481,-1.25 -6.867,-1.25 -5.231,0 -11.313,1.051 -11.313,13.82 0,11.199 4.973,13.801 10.039,13.801 4.66,0 9.942,-2.063 9.551,-13.801 z m -9.473,11.789 c -3.277,0 -5.34,-1.602 -5.527,-8.68 h 10.609 c 0,7.532 -2.371,8.68 -5.082,8.68"
         style="fill:#1a66ba;fill-opacity:1;fill-rule:nonzero;stroke:none"
         id="path314" />
      <path
         d="m 473.375,726.5 c -3.281,0 -5.34,-1.59 -5.531,-8.68 h 10.609 c 0,7.532 -2.367,8.68 -5.078,8.68 m 9.469,-11.789 h -15.039 c 0.199,-8.539 4.261,-8.441 6.84,-8.441 2.539,0 6.871,1.312 6.871,1.312 v -4.031 c 0,0 -3.481,-1.25 -6.871,-1.25 -5.239,0 -11.309,1.051 -11.309,13.82 0,11.199 4.969,13.801 10.039,13.801 4.66,0 9.941,-2.063 9.551,-13.801 l -0.082,-1.41 v 0"
         style="fill:#1a66ba;fill-opacity:1;fill-rule:nonzero;stroke:none"
         id="path316" />
      <path
         d="m 493.465,733.441 c -1.68,0 -2.961,1.36 -2.961,3.02 0,1.648 1.281,3 2.961,3 1.648,0 2.961,-1.352 2.961,-3 0,-1.66 -1.313,-3.02 -2.961,-3.02 m -2.27,-4.019 h 4.508 v -26.613 h -4.508 v 26.613 0"
         style="fill:#1a66ba;fill-opacity:1;fill-rule:nonzero;stroke:none"
         id="path318" />
      <path
         d="m 493.465,733.441 c -1.68,0 -2.961,1.348 -2.961,3.02 0,1.648 1.281,3 2.961,3 1.648,0 2.961,-1.352 2.961,-3 0,-1.672 -1.313,-3.02 -2.961,-3.02"
         style="fill:#1a66ba;fill-opacity:1;fill-rule:nonzero;stroke:none"
         id="path320" />
      <path
         d="m 495.703,729.422 h -4.508 v -26.613 h 4.508 v 26.613 0"
         style="fill:#1a66ba;fill-opacity:1;fill-rule:evenodd;stroke:none"
         id="path322" />
      <path
         d="m 509.547,702.301 c -2.844,0 -5.902,1.051 -5.902,1.051 v 4.019 c 0,0 3.761,-1.199 5.902,-1.199 2.59,0 5.168,0.59 5.168,3.918 0,2.851 -1.531,3.422 -3.641,4.269 l -2.609,1.051 c -1.789,0.75 -5.231,2.41 -5.231,7.078 0,4.782 3.532,7.434 8.743,7.434 3.507,0 6.039,-1.051 6.039,-1.051 v -3.769 c 0,0 -3.129,1.058 -5.879,1.058 -2.524,0 -4.633,-0.711 -4.633,-3.41 0,-2.77 1.851,-3.32 3.281,-3.871 l 2.621,-1.059 c 2.789,-1.109 5.61,-2.871 5.61,-7.73 0,-6.59 -4.813,-7.789 -9.469,-7.789"
         style="fill:#1a66ba;fill-opacity:1;fill-rule:nonzero;stroke:none"
         id="path324" />
      <path
         d="m 557.273,702.809 -0.539,2.863 c -0.898,-1.113 -3.328,-3.371 -7.32,-3.371 -3.84,0 -9.82,1.758 -9.82,13.82 0,12.301 7.429,13.801 10.801,13.801 3.332,0 5.16,-1.813 5.761,-2.453 v 11.492 h 4.52 v -36.152 z m -1.117,21.39 c -0.679,0.551 -2.691,1.961 -5.25,1.961 -3.07,0 -6.793,-1.25 -6.793,-10.039 0,-9.359 3.473,-10.101 6.282,-10.101 2.621,0 4.941,1.75 5.761,2.449 v 15.73 0"
         style="fill:#1a66ba;fill-opacity:1;fill-rule:nonzero;stroke:none"
         id="path326" />
      <path
         d="m 556.164,724.199 c -0.687,0.551 -2.687,1.961 -5.258,1.961 -3.062,0 -6.781,-1.25 -6.781,-10.031 0,-9.359 3.461,-10.109 6.281,-10.109 2.61,0 4.938,1.761 5.758,2.449 z m 1.121,-21.39 -0.551,2.871 c -0.898,-1.121 -3.328,-3.379 -7.308,-3.379 -3.84,0 -9.832,1.758 -9.832,13.828 0,12.293 7.441,13.793 10.812,13.793 3.328,0 5.16,-1.813 5.758,-2.453 v 11.492 h 4.52 v -36.152 h -3.399 v 0"
         style="fill:#1a66ba;fill-opacity:1;fill-rule:nonzero;stroke:none"
         id="path328" />
      <path
         d="m 588.773,714.711 h -15.07 c 0.211,-8.551 4.274,-8.441 6.82,-8.441 2.59,0 6.903,1.3 6.903,1.3 v -4.019 c 0,0 -3.461,-1.25 -6.903,-1.25 -5.199,0 -11.289,1.051 -11.289,13.82 0,11.199 4.981,13.801 10.051,13.801 4.68,0 9.93,-2.063 9.539,-13.801 z m -9.488,11.789 c -3.281,0 -5.32,-1.602 -5.531,-8.68 h 10.601 c 0,7.532 -2.359,8.68 -5.07,8.68"
         style="fill:#1a66ba;fill-opacity:1;fill-rule:nonzero;stroke:none"
         id="path330" />
      <path
         d="m 579.285,726.5 c -3.281,0 -5.32,-1.59 -5.531,-8.68 h 10.601 c 0,7.532 -2.371,8.68 -5.07,8.68 m 9.488,-11.789 h -15.07 c 0.211,-8.539 4.274,-8.441 6.82,-8.441 2.59,0 6.903,1.312 6.903,1.312 v -4.031 c 0,0 -3.461,-1.25 -6.903,-1.25 -5.207,0 -11.289,1.051 -11.289,13.82 0,11.199 4.981,13.801 10.051,13.801 4.68,0 9.93,-2.063 9.539,-13.801 l -0.051,-1.41 v 0"
         style="fill:#1a66ba;fill-opacity:1;fill-rule:nonzero;stroke:none"
         id="path332" />
      <path
         d="m 600.613,702.301 c -2.808,0 -5.867,1.051 -5.867,1.051 v 4.019 c 0,0 3.758,-1.199 5.867,-1.199 2.602,0 5.172,0.59 5.172,3.918 0,2.851 -1.5,3.422 -3.609,4.269 l -2.61,1.051 c -1.812,0.75 -5.23,2.41 -5.23,7.078 0,4.782 3.539,7.434 8.738,7.434 3.52,0 6.039,-1.051 6.039,-1.051 v -3.769 c 0,0 -3.129,1.058 -5.898,1.058 -2.481,0 -4.61,-0.711 -4.61,-3.41 0,-2.77 1.848,-3.32 3.282,-3.871 l 2.59,-1.059 c 2.82,-1.109 5.636,-2.871 5.636,-7.73 0,-6.59 -4.828,-7.789 -9.5,-7.789"
         style="fill:#1a66ba;fill-opacity:1;fill-rule:nonzero;stroke:none"
         id="path334" />
      <path
         d="m 638.074,702.809 h -5.859 v 35.14 h 6.351 c 8.618,0 13.207,-1.34 13.207,-9.129 0,-4.468 -2.976,-7.031 -6,-7.73 3.762,-0.551 7.012,-2.61 7.012,-8.231 0,-9.308 -5.449,-10.05 -14.711,-10.05 m 0.391,31.492 h -1.738 V 722.66 h 1.839 c 6.188,0 8.688,0.988 8.688,6.02 0,4.859 -2.719,5.621 -8.789,5.621 m 0.101,-15.172 h -1.839 v -12.66 h 2.207 c 6.281,0 9.339,0.801 9.339,6.39 0,5.313 -3.66,6.27 -9.707,6.27"
         style="fill:#1a66ba;fill-opacity:1;fill-rule:nonzero;stroke:none"
         id="path336" />
      <path
         d="m 638.465,734.289 h -1.738 v -11.641 h 1.839 c 6.188,0 8.688,1 8.688,6.024 0,4.867 -2.719,5.617 -8.789,5.617 m 0.101,-15.16 h -1.839 v -12.66 h 2.207 c 6.281,0 9.339,0.801 9.339,6.383 0,5.32 -3.66,6.277 -9.707,6.277 m -0.492,-16.32 h -5.859 v 35.14 h 6.351 c 8.618,0 13.207,-1.34 13.207,-9.129 0,-4.468 -2.976,-7.031 -6,-7.73 3.762,-0.551 7.012,-2.621 7.012,-8.238 0,-9.301 -5.449,-10.043 -14.711,-10.043"
         style="fill:#1a66ba;fill-opacity:1;fill-rule:nonzero;stroke:none"
         id="path338" />
      <path
         d="m 676.734,702.809 -0.558,3.461 c 0,0 -3.59,-3.969 -8.063,-3.969 -4.269,0 -7.277,1.918 -7.277,7.789 v 19.332 h 4.519 V 711.09 c 0,-3.149 0.739,-4.719 3.731,-4.719 3.277,0 6.801,2.82 6.801,2.82 v 20.231 h 4.519 v -26.613 h -3.672 v 0"
         style="fill:#1a66ba;fill-opacity:1;fill-rule:nonzero;stroke:none"
         id="path340" />
      <path
         d="m 706.273,702.809 v 19.382 c 0,3.571 -2.269,3.668 -4.289,3.668 -3.66,0 -7.269,-2.668 -7.269,-2.668 v -20.382 h -4.512 v 26.613 h 3.363 l 0.989,-3.262 c 0,0 3.929,3.762 8.601,3.762 4.41,0 7.617,-1.813 7.617,-7.942 v -19.171 h -4.5 v 0"
         style="fill:#1a66ba;fill-opacity:1;fill-rule:nonzero;stroke:none"
         id="path342" />
      <path
         d="m 736.746,702.809 -0.543,2.863 c -0.898,-1.113 -3.328,-3.371 -7.348,-3.371 -3.808,0 -9.789,1.758 -9.789,13.82 0,12.301 7.45,13.801 10.809,13.801 3.32,0 5.172,-1.813 5.77,-2.453 v 11.492 h 4.519 v -36.152 z m -1.101,21.39 c -0.711,0.551 -2.711,1.961 -5.27,1.961 -3.059,0 -6.77,-1.25 -6.77,-10.039 0,-9.359 3.442,-10.101 6.27,-10.101 2.609,0 4.922,1.75 5.77,2.449 v 15.73 0"
         style="fill:#1a66ba;fill-opacity:1;fill-rule:nonzero;stroke:none"
         id="path344" />
      <path
         d="m 735.645,724.199 c -0.719,0.551 -2.711,1.961 -5.282,1.961 -3.047,0 -6.758,-1.25 -6.758,-10.031 0,-9.359 3.43,-10.109 6.258,-10.109 2.614,0 4.934,1.761 5.782,2.449 z m 1.101,-21.39 -0.551,2.871 c -0.898,-1.121 -3.332,-3.379 -7.34,-3.379 -3.808,0 -9.8,1.758 -9.8,13.828 0,12.293 7.461,13.793 10.808,13.793 3.332,0 5.184,-1.813 5.782,-2.453 v 11.492 h 4.519 v -36.152 h -3.418 v 0"
         style="fill:#1a66ba;fill-opacity:1;fill-rule:nonzero;stroke:none"
         id="path346" />
      <path
         d="m 768.215,714.711 h -15.051 c 0.191,-8.551 4.27,-8.441 6.84,-8.441 2.551,0 6.859,1.3 6.859,1.3 v -4.019 c 0,0 -3.437,-1.25 -6.859,-1.25 -5.231,0 -11.309,1.051 -11.309,13.82 0,11.199 4.981,13.801 10.051,13.801 4.68,0 9.93,-2.063 9.539,-13.801 z m -9.469,11.789 c -3.262,0 -5.32,-1.602 -5.531,-8.68 h 10.601 c 0,7.532 -2.363,8.68 -5.07,8.68"
         style="fill:#1a66ba;fill-opacity:1;fill-rule:nonzero;stroke:none"
         id="path348" />
      <path
         d="m 758.754,726.5 c -3.258,0 -5.32,-1.59 -5.527,-8.68 h 10.597 c 0,7.532 -2.371,8.68 -5.07,8.68 m 9.473,-11.789 h -15.051 c 0.187,-8.539 4.269,-8.441 6.84,-8.441 2.55,0 6.847,1.312 6.847,1.312 v -4.031 c 0,0 -3.429,-1.25 -6.847,-1.25 -5.243,0 -11.313,1.051 -11.313,13.82 0,11.199 4.981,13.801 10.051,13.801 4.68,0 9.93,-2.063 9.543,-13.801 l -0.07,-1.41 v 0"
         style="fill:#1a66ba;fill-opacity:1;fill-rule:nonzero;stroke:none"
         id="path350" />
      <path
         d="m 780.105,702.301 c -2.851,0 -5.902,1.051 -5.902,1.051 v 4.019 c 0,0 3.774,-1.199 5.902,-1.199 2.59,0 5.161,0.59 5.161,3.918 0,2.851 -1.512,3.422 -3.629,4.269 l -2.602,1.051 c -1.82,0.75 -5.238,2.41 -5.238,7.078 0,4.782 3.539,7.434 8.738,7.434 3.531,0 6.031,-1.051 6.031,-1.051 v -3.769 c 0,0 -3.121,1.058 -5.871,1.058 -2.5,0 -4.629,-0.711 -4.629,-3.41 0,-2.77 1.848,-3.32 3.27,-3.871 l 2.617,-1.059 c 2.801,-1.109 5.621,-2.871 5.621,-7.73 0,-6.59 -4.82,-7.789 -9.469,-7.789"
         style="fill:#1a66ba;fill-opacity:1;fill-rule:nonzero;stroke:none"
         id="path352" />
      <path
         d="m 806.906,702.301 c -2.48,0 -4.472,0.969 -5.293,1.461 V 693.27 h -4.519 v 36.152 h 3.472 l 0.668,-2.91 c 1.352,1.668 3.422,3.418 6.93,3.418 3.762,0 9.539,-1.508 9.539,-13.668 0,-12.793 -7.848,-13.961 -10.797,-13.961 m 0.75,23.91 c -2.769,0 -5.031,-1.402 -6.043,-2.359 V 706.93 c 0.723,-0.258 2.621,-1.008 4.942,-1.008 3.05,0 6.629,1.558 6.629,10.34 0,8.449 -2.571,9.949 -5.528,9.949"
         style="fill:#1a66ba;fill-opacity:1;fill-rule:nonzero;stroke:none"
         id="path354" />
      <path
         d="m 807.656,726.211 c -2.769,0 -5.031,-1.41 -6.031,-2.371 v -16.918 c 0.711,-0.25 2.609,-1.012 4.93,-1.012 3.058,0 6.629,1.57 6.629,10.352 0,8.437 -2.571,9.949 -5.528,9.949 m -0.75,-23.91 c -2.48,0 -4.472,0.969 -5.281,1.461 v -10.5 h -4.52 v 36.16 h 3.461 l 0.68,-2.922 c 1.34,1.68 3.41,3.422 6.918,3.422 3.762,0 9.539,-1.5 9.539,-13.66 0,-12.801 -7.848,-13.961 -10.797,-13.961"
         style="fill:#1a66ba;fill-opacity:1;fill-rule:nonzero;stroke:none"
         id="path356" />
      <path
         d="m 834.914,725.219 c -2.5,0 -4.16,-2.117 -4.16,-2.117 v -20.293 h -4.508 v 26.613 h 3.457 l 0.66,-3.531 c 0,0 1.543,4.031 5.621,4.031 0.903,0 2.211,-0.301 2.211,-0.301 v -4.922 c 0,0 -1.519,0.52 -3.281,0.52"
         style="fill:#1a66ba;fill-opacity:1;fill-rule:nonzero;stroke:none"
         id="path358" />
      <path
         d="m 855.676,702.809 -0.512,3.101 c 0,0 -2.309,-3.609 -6.949,-3.609 -3.262,0 -7.781,1.16 -7.781,8.34 0,7.269 5.691,8.531 10.211,8.531 h 4.359 v 2.91 c 0,3.668 -1.949,4.02 -5.027,4.02 -2.411,0 -6.274,-1.043 -7.274,-1.364 v 3.832 c 0,0 3.844,1.352 7.992,1.352 4.809,0 8.828,-1.313 8.828,-8.641 v -18.472 z m -11.153,30.632 c -1.648,0 -2.988,1.348 -2.988,3.02 0,1.648 1.34,3 2.988,3 1.653,0 2.942,-1.352 2.942,-3 0,-1.672 -1.289,-3.02 -2.942,-3.02 m 10.481,-17.031 -3.258,-0.039 c -4.133,-0.07 -6.793,-0.961 -6.793,-5.332 0,-4.469 2,-5.07 4.274,-5.07 3.07,0 5.777,2.801 5.777,2.801 z m 1.012,17.031 c -1.653,0 -2.961,1.348 -2.961,3.02 0,1.648 1.308,3 2.961,3 1.648,0 2.961,-1.352 2.961,-3 0,-1.672 -1.313,-3.02 -2.961,-3.02"
         style="fill:#1a66ba;fill-opacity:1;fill-rule:nonzero;stroke:none"
         id="path360" />
      <path
         d="m 855.016,716.41 -3.27,-0.031 c -4.133,-0.07 -6.793,-0.969 -6.793,-5.34 0,-4.461 2,-5.07 4.274,-5.07 3.07,0 5.789,2.801 5.789,2.801 z m 0.66,-13.601 -0.512,3.113 c 0,0 -2.309,-3.621 -6.949,-3.621 -3.262,0 -7.77,1.16 -7.77,8.34 0,7.269 5.68,8.539 10.2,8.539 h 4.371 v 2.91 c 0,3.672 -1.961,4.019 -5.032,4.019 -2.418,0 -6.281,-1.05 -7.281,-1.359 v 3.82 c 0,0 3.844,1.352 7.992,1.352 4.809,0 8.828,-1.301 8.828,-8.633 v -18.48 h -3.847 v 0"
         style="fill:#1a66ba;fill-opacity:1;fill-rule:nonzero;stroke:none"
         id="path362" />
      <path
         d="m 844.516,733.441 c -1.653,0 -2.993,1.348 -2.993,3.02 0,1.648 1.34,3 2.993,3 1.648,0 2.937,-1.352 2.937,-3 0,-1.672 -1.289,-3.02 -2.937,-3.02"
         style="fill:#1a66ba;fill-opacity:1;fill-rule:nonzero;stroke:none"
         id="path364" />
      <path
         d="m 856.016,733.441 c -1.653,0 -2.961,1.348 -2.961,3.02 0,1.648 1.308,3 2.961,3 1.648,0 2.961,-1.352 2.961,-3 0,-1.672 -1.313,-3.02 -2.961,-3.02"
         style="fill:#1a66ba;fill-opacity:1;fill-rule:nonzero;stroke:none"
         id="path366" />
      <path
         d="m 873.074,702.301 c -2.808,0 -5.84,1.051 -5.84,1.051 v 4.019 c 0,0 3.731,-1.199 5.84,-1.199 2.621,0 5.199,0.59 5.199,3.918 0,2.851 -1.527,3.422 -3.636,4.269 l -2.614,1.051 c -1.777,0.75 -5.199,2.41 -5.199,7.078 0,4.782 3.512,7.434 8.731,7.434 3.519,0 6.019,-1.051 6.019,-1.051 v -3.769 c 0,0 -3.109,1.058 -5.879,1.058 -2.5,0 -4.609,-0.711 -4.609,-3.41 0,-2.77 1.828,-3.32 3.258,-3.871 l 2.621,-1.059 c 2.789,-1.109 5.609,-2.871 5.609,-7.73 0,-6.59 -4.808,-7.789 -9.5,-7.789"
         style="fill:#1a66ba;fill-opacity:1;fill-rule:nonzero;stroke:none"
         id="path368" />
      <path
         d="m 892.375,733.441 c -1.648,0 -2.961,1.36 -2.961,3.02 0,1.648 1.313,3 2.961,3 1.66,0 2.961,-1.352 2.961,-3 0,-1.66 -1.301,-3.02 -2.961,-3.02 m -2.25,-4.019 h 4.488 v -26.613 h -4.488 v 26.613 0"
         style="fill:#1a66ba;fill-opacity:1;fill-rule:nonzero;stroke:none"
         id="path370" />
      <path
         d="m 892.375,733.441 c -1.648,0 -2.961,1.348 -2.961,3.02 0,1.648 1.313,3 2.961,3 1.66,0 2.961,-1.352 2.961,-3 0,-1.672 -1.301,-3.02 -2.961,-3.02"
         style="fill:#1a66ba;fill-opacity:1;fill-rule:nonzero;stroke:none"
         id="path372" />
      <path
         d="m 894.613,729.422 h -4.488 v -26.613 h 4.488 v 26.613 0"
         style="fill:#1a66ba;fill-opacity:1;fill-rule:evenodd;stroke:none"
         id="path374" />
      <path
         d="m 920.844,702.809 -0.547,2.863 c -0.891,-1.113 -3.301,-3.371 -7.32,-3.371 -3.832,0 -9.801,1.758 -9.801,13.82 0,12.301 7.437,13.801 10.777,13.801 3.332,0 5.192,-1.813 5.781,-2.453 v 11.492 h 4.532 v -36.152 z m -1.11,21.39 c -0.679,0.551 -2.699,1.961 -5.269,1.961 -3.07,0 -6.762,-1.25 -6.762,-10.039 0,-9.359 3.461,-10.101 6.25,-10.101 2.621,0 4.942,1.75 5.781,2.449 v 15.73 0"
         style="fill:#1a66ba;fill-opacity:1;fill-rule:nonzero;stroke:none"
         id="path376" />
      <path
         d="m 919.734,724.199 c -0.687,0.551 -2.699,1.961 -5.281,1.961 -3.058,0 -6.75,-1.25 -6.75,-10.031 0,-9.359 3.453,-10.109 6.25,-10.109 2.613,0 4.942,1.761 5.781,2.449 z m 1.11,-21.39 -0.559,2.871 c -0.89,-1.121 -3.301,-3.379 -7.308,-3.379 -3.832,0 -9.813,1.758 -9.813,13.828 0,12.293 7.449,13.793 10.789,13.793 3.332,0 5.192,-1.813 5.781,-2.453 v 11.492 h 4.532 v -36.152 h -3.422 v 0"
         style="fill:#1a66ba;fill-opacity:1;fill-rule:nonzero;stroke:none"
         id="path378" />
      <path
         d="m 952.344,714.711 h -15.071 c 0.204,-8.551 4.262,-8.441 6.84,-8.441 2.543,0 6.871,1.3 6.871,1.3 v -4.019 c 0,0 -3.48,-1.25 -6.871,-1.25 -5.226,0 -11.316,1.051 -11.316,13.82 0,11.199 4.976,13.801 10.047,13.801 4.66,0 9.941,-2.063 9.551,-13.801 z m -9.5,11.789 c -3.258,0 -5.321,-1.602 -5.528,-8.68 h 10.61 c 0,7.532 -2.371,8.68 -5.082,8.68"
         style="fill:#1a66ba;fill-opacity:1;fill-rule:nonzero;stroke:none"
         id="path380" />
      <path
         d="m 942.844,726.5 c -3.258,0 -5.321,-1.59 -5.528,-8.68 h 10.61 c 0,7.532 -2.371,8.68 -5.082,8.68 m 9.5,-11.789 h -15.071 c 0.204,-8.539 4.262,-8.441 6.84,-8.441 2.543,0 6.871,1.312 6.871,1.312 v -4.031 c 0,0 -3.48,-1.25 -6.871,-1.25 -5.238,0 -11.316,1.051 -11.316,13.82 0,11.199 4.976,13.801 10.047,13.801 4.66,0 9.941,-2.063 9.551,-13.801 l -0.051,-1.41 v 0"
         style="fill:#1a66ba;fill-opacity:1;fill-rule:nonzero;stroke:none"
         id="path382" />
      <path
         d="m 976.477,702.809 v 19.382 c 0,3.571 -2.25,3.668 -4.274,3.668 -3.668,0 -7.269,-2.668 -7.269,-2.668 v -20.382 h -4.508 v 26.613 h 3.34 l 1.007,-3.262 c 0,0 3.93,3.762 8.571,3.762 4.461,0 7.672,-1.813 7.672,-7.942 v -19.171 h -4.539 v 0"
         style="fill:#1a66ba;fill-opacity:1;fill-rule:nonzero;stroke:none"
         id="path384" />
      <path
         d="m 997.074,702.301 c -3.84,0 -6.039,1.461 -6.039,6.687 v 16.961 h -4.519 v 3.473 h 4.519 l 0.211,6.027 4.309,2.012 v -8.039 h 6.035 l -0.51,-3.473 h -5.525 v -17.117 c 0,-2.363 0.8,-2.711 2.531,-2.711 1.648,0 4.494,0.899 4.494,0.899 v -3.809 c 0,0 -2.674,-0.91 -5.506,-0.91"
         style="fill:#1a66ba;fill-opacity:1;fill-rule:nonzero;stroke:none"
         id="path386" />
      <path
         d="m 1025.64,714.711 h -15.05 c 0.19,-8.551 4.27,-8.441 6.85,-8.441 2.54,0 6.86,1.3 6.86,1.3 v -4.019 c 0,0 -3.48,-1.25 -6.86,-1.25 -5.23,0 -11.32,1.051 -11.32,13.82 0,11.199 4.95,13.801 10.05,13.801 4.65,0 9.94,-2.063 9.55,-13.801 z m -9.47,11.789 c -3.28,0 -5.35,-1.602 -5.53,-8.68 h 10.57 c 0,7.532 -2.33,8.68 -5.04,8.68"
         style="fill:#1a66ba;fill-opacity:1;fill-rule:nonzero;stroke:none"
         id="path388" />
      <path
         d="m 1016.17,726.5 c -3.28,0 -5.35,-1.59 -5.53,-8.68 h 10.57 c 0,7.532 -2.33,8.68 -5.04,8.68 m 9.47,-11.789 h -15.05 c 0.19,-8.539 4.27,-8.441 6.85,-8.441 2.54,0 6.85,1.312 6.85,1.312 v -4.031 c 0,0 -3.47,-1.25 -6.85,-1.25 -5.24,0 -11.32,1.051 -11.32,13.82 0,11.199 4.95,13.801 10.05,13.801 4.65,0 9.94,-2.063 9.55,-13.801 l -0.08,-1.41 v 0"
         style="fill:#1a66ba;fill-opacity:1;fill-rule:nonzero;stroke:none"
         id="path390" />
      <path
         d="m 1049.8,702.809 v 19.382 c 0,3.571 -2.25,3.668 -4.28,3.668 -3.65,0 -7.26,-2.668 -7.26,-2.668 v -20.382 h -4.53 v 26.613 h 3.36 l 1.01,-3.262 c 0,0 3.91,3.762 8.57,3.762 4.44,0 7.64,-1.813 7.64,-7.942 v -19.171 h -4.51 v 0"
         style="fill:#1a66ba;fill-opacity:1;fill-rule:nonzero;stroke:none"
         id="path392" />
      <path
         d="m 758.977,673.34 c -2.364,0 -3.622,-1.16 -3.622,-3.61 v -2.718 h 6.032 l -0.512,-3.461 h -5.52 v -23.153 h -4.519 v 23.153 h -4.5 v 3.461 h 4.5 v 2.457 c 0,5.621 3.488,7.59 7.98,7.59 2.707,0 5.098,-1.008 5.098,-1.008 v -3.621 c 0,0 -2.461,0.91 -4.937,0.91"
         style="fill:#1a66ba;fill-opacity:1;fill-rule:nonzero;stroke:none"
         id="path394" />
      <path
         d="m 782.586,640.391 -0.551,3.461 c 0,0 -3.629,-3.961 -8.082,-3.961 -4.289,0 -7.289,1.91 -7.289,7.789 v 19.332 h 4.52 V 648.68 c 0,-3.168 0.761,-4.719 3.761,-4.719 3.282,0 6.782,2.809 6.782,2.809 v 20.242 h 4.539 v -26.621 z m -11.742,30.629 c -1.68,0 -2.981,1.371 -2.981,3.031 0,1.648 1.301,3.008 2.981,3.008 1.652,0 2.961,-1.36 2.961,-3.008 0,-1.66 -1.309,-3.031 -2.961,-3.031 m 11.511,0 c -1.679,0 -2.992,1.371 -2.992,3.031 0,1.648 1.313,3.008 2.992,3.008 1.629,0 2.942,-1.36 2.942,-3.008 0,-1.66 -1.313,-3.031 -2.942,-3.031"
         style="fill:#1a66ba;fill-opacity:1;fill-rule:nonzero;stroke:none"
         id="path396" />
      <path
         d="m 782.586,640.398 -0.563,3.454 c 0,0 -3.617,-3.954 -8.07,-3.954 -4.289,0 -7.297,1.903 -7.297,7.793 v 19.321 h 4.52 V 648.68 c 0,-3.16 0.769,-4.711 3.758,-4.711 3.281,0 6.793,2.812 6.793,2.812 v 20.231 h 4.527 v -26.614 h -3.668 v 0"
         style="fill:#1a66ba;fill-opacity:1;fill-rule:nonzero;stroke:none"
         id="path398" />
      <path
         d="m 770.836,671.02 c -1.68,0 -2.981,1.371 -2.981,3.031 0,1.648 1.301,3.008 2.981,3.008 1.648,0 2.961,-1.36 2.961,-3.008 0,-1.66 -1.313,-3.031 -2.961,-3.031"
         style="fill:#1a66ba;fill-opacity:1;fill-rule:nonzero;stroke:none"
         id="path400" />
      <path
         d="m 782.355,671.02 c -1.679,0 -2.992,1.371 -2.992,3.031 0,1.648 1.313,3.008 2.992,3.008 1.629,0 2.942,-1.36 2.942,-3.008 0,-1.66 -1.313,-3.031 -2.942,-3.031"
         style="fill:#1a66ba;fill-opacity:1;fill-rule:nonzero;stroke:none"
         id="path402" />
      <path
         d="m 804.965,662.789 c -2.5,0 -4.149,-2.098 -4.149,-2.098 v -20.293 h -4.519 v 26.614 h 3.437 l 0.672,-3.512 c 0,0 1.547,4.02 5.629,4.02 0.899,0 2.211,-0.321 2.211,-0.321 v -4.898 c 0,0 -1.512,0.488 -3.281,0.488"
         style="fill:#1a66ba;fill-opacity:1;fill-rule:nonzero;stroke:none"
         id="path404" />
      <path
         d="m 844.406,671.281 h -8.051 v -30.883 h -4.519 v 30.883 h -8.5 v 4.27 h 21.578 l -0.508,-4.27 v 0"
         style="fill:#1a66ba;fill-opacity:1;fill-rule:nonzero;stroke:none"
         id="path406" />
      <path
         d="m 865.434,652.309 h -15.071 c 0.211,-8.547 4.274,-8.457 6.84,-8.457 2.57,0 6.883,1.32 6.883,1.32 v -4.012 c 0,0 -3.461,-1.262 -6.883,-1.262 -5.219,0 -11.277,1.051 -11.277,13.801 0,11.211 4.949,13.821 10.019,13.821 4.68,0 9.961,-2.071 9.539,-13.821 z m -9.489,11.793 c -3.261,0 -5.32,-1.614 -5.511,-8.692 h 10.613 c 0,7.539 -2.391,8.692 -5.102,8.692"
         style="fill:#1a66ba;fill-opacity:1;fill-rule:nonzero;stroke:none"
         id="path408" />
      <path
         d="m 855.945,664.102 c -3.261,0 -5.32,-1.602 -5.511,-8.68 h 10.613 c 0,7.527 -2.402,8.68 -5.102,8.68 m 9.489,-11.793 h -15.071 c 0.211,-8.539 4.274,-8.457 6.84,-8.457 2.57,0 6.883,1.328 6.883,1.328 v -4.02 c 0,0 -3.461,-1.262 -6.883,-1.262 -5.226,0 -11.277,1.051 -11.277,13.813 0,11.199 4.949,13.809 10.019,13.809 4.68,0 9.961,-2.071 9.539,-13.809 l -0.05,-1.402 v 0"
         style="fill:#1a66ba;fill-opacity:1;fill-rule:nonzero;stroke:none"
         id="path410" />
      <path
         d="m 883.227,639.891 c -4.223,0 -11.223,1.109 -11.223,13.648 0,12.66 7.48,13.973 11.473,13.973 2.847,0 5.109,-0.953 5.109,-0.953 v -3.868 c 0,0 -2.52,0.95 -4.973,0.95 -3.258,0 -7.09,-0.801 -7.09,-10.102 0,-8.48 3.582,-9.641 6.704,-9.641 2.41,0 5.359,1.063 5.359,1.063 v -4.07 c 0,0 -2.609,-1 -5.359,-1"
         style="fill:#1a66ba;fill-opacity:1;fill-rule:nonzero;stroke:none"
         id="path412" />
      <path
         d="m 910.684,640.398 v 19.34 c 0,3.422 -1.84,3.66 -4.27,3.66 -3.398,0 -7.289,-2.707 -7.289,-2.707 v -20.293 h -4.5 v 36.161 h 4.5 v -12.758 c 0,0 3.891,3.719 8.43,3.719 4.461,0 7.648,-1.821 7.648,-7.938 v -19.184 h -4.519 v 0"
         style="fill:#1a66ba;fill-opacity:1;fill-rule:nonzero;stroke:none"
         id="path414" />
      <path
         d="m 941.055,640.398 v 19.383 c 0,3.571 -2.25,3.68 -4.25,3.68 -3.668,0 -7.282,-2.672 -7.282,-2.672 v -20.391 h -4.527 v 26.614 h 3.348 l 1.031,-3.274 c 0,0 3.898,3.782 8.578,3.782 4.434,0 7.641,-1.821 7.641,-7.938 v -19.184 h -4.539 v 0"
         style="fill:#1a66ba;fill-opacity:1;fill-rule:nonzero;stroke:none"
         id="path416" />
      <path
         d="m 957.645,671.02 c -1.68,0 -2.969,1.371 -2.969,3.031 0,1.648 1.289,3.008 2.969,3.008 1.64,0 2.949,-1.36 2.949,-3.008 0,-1.66 -1.309,-3.031 -2.949,-3.031 m -2.282,-4.008 h 4.524 v -26.614 h -4.524 v 26.614 0"
         style="fill:#1a66ba;fill-opacity:1;fill-rule:nonzero;stroke:none"
         id="path418" />
      <path
         d="m 957.645,671.02 c -1.68,0 -2.969,1.371 -2.969,3.031 0,1.648 1.289,3.008 2.969,3.008 1.64,0 2.949,-1.36 2.949,-3.008 0,-1.66 -1.309,-3.031 -2.949,-3.031"
         style="fill:#1a66ba;fill-opacity:1;fill-rule:nonzero;stroke:none"
         id="path420" />
      <path
         d="m 959.887,667.012 h -4.524 v -26.614 h 4.524 v 26.614 0"
         style="fill:#1a66ba;fill-opacity:1;fill-rule:evenodd;stroke:none"
         id="path422" />
      <path
         d="m 969.934,676.551 h 4.519 v -36.16 h -4.519 z m 14.82,-36.66 -9.25,15.82 7.941,11.289 h 5.578 l -8.898,-11.191 9.898,-15.418 -5.269,-0.5 v 0"
         style="fill:#1a66ba;fill-opacity:1;fill-rule:nonzero;stroke:none"
         id="path424" />
      <path
         d="m 974.445,676.551 h -4.519 v -36.16 h 4.519 v 36.16 0"
         style="fill:#1a66ba;fill-opacity:1;fill-rule:evenodd;stroke:none"
         id="path426" />
      <path
         d="m 984.754,639.891 -9.25,15.82 7.941,11.289 h 5.578 l -8.898,-11.191 9.898,-15.418 -5.269,-0.5 v 0"
         style="fill:#1a66ba;fill-opacity:1;fill-rule:nonzero;stroke:none"
         id="path428" />
      <path
         d="m 1025.52,640.398 -0.55,3.454 c 0,0 -3.59,-3.954 -8.06,-3.954 -4.28,0 -7.29,1.903 -7.29,7.793 v 19.321 h 4.53 V 648.68 c 0,-3.16 0.73,-4.711 3.75,-4.711 3.26,0 6.8,2.812 6.8,2.812 v 20.231 h 4.49 v -26.614 h -3.67 v 0"
         style="fill:#1a66ba;fill-opacity:1;fill-rule:nonzero;stroke:none"
         id="path430" />
      <path
         d="m 1055.07,640.398 v 19.383 c 0,3.571 -2.25,3.68 -4.3,3.68 -3.63,0 -7.26,-2.672 -7.26,-2.672 V 640.398 H 1039 v 26.614 h 3.36 l 1.01,-3.274 c 0,0 3.91,3.782 8.57,3.782 4.44,0 7.62,-1.821 7.62,-7.938 v -19.184 h -4.49 v 0"
         style="fill:#1a66ba;fill-opacity:1;fill-rule:nonzero;stroke:none"
         id="path432" />
      <path
         d="m 1085.54,640.398 -0.52,2.852 c -0.92,-1.109 -3.32,-3.352 -7.35,-3.352 -3.83,0 -9.8,1.75 -9.8,13.801 0,12.313 7.44,13.821 10.8,13.821 3.32,0 5.17,-1.821 5.76,-2.469 v 11.508 h 4.55 v -36.161 z m -1.11,21.391 c -0.68,0.551 -2.7,1.949 -5.27,1.949 -3.05,0 -6.76,-1.25 -6.76,-10.039 0,-9.328 3.46,-10.09 6.27,-10.09 2.63,0 4.92,1.762 5.76,2.461 v 15.719 0"
         style="fill:#1a66ba;fill-opacity:1;fill-rule:nonzero;stroke:none"
         id="path434" />
      <path
         d="m 1084.43,661.789 c -0.69,0.551 -2.7,1.949 -5.28,1.949 -3.04,0 -6.75,-1.25 -6.75,-10.027 0,-9.34 3.45,-10.102 6.26,-10.102 2.64,0 4.93,1.762 5.77,2.461 z m 1.11,-21.391 -0.53,2.864 c -0.92,-1.121 -3.32,-3.364 -7.34,-3.364 -3.83,0 -9.81,1.75 -9.81,13.813 0,12.309 7.45,13.809 10.8,13.809 3.33,0 5.18,-1.821 5.77,-2.469 v 11.508 h 4.55 v -36.161 h -3.44 v 0"
         style="fill:#1a66ba;fill-opacity:1;fill-rule:nonzero;stroke:none"
         id="path436" />
      <path
         d="m 1118.18,675.539 h -4.61 v -35.148 h 4.61 v 35.148 0"
         style="fill:#1a66ba;fill-opacity:1;fill-rule:evenodd;stroke:none"
         id="path438" />
      <path
         d="m 1144.31,640.398 v 19.383 c 0,3.571 -2.27,3.68 -4.26,3.68 -3.67,0 -7.3,-2.672 -7.3,-2.672 v -20.391 h -4.51 v 26.614 h 3.36 l 1.01,-3.274 c 0,0 3.93,3.782 8.57,3.782 4.42,0 7.62,-1.821 7.62,-7.938 v -19.184 h -4.49 v 0"
         style="fill:#1a66ba;fill-opacity:1;fill-rule:nonzero;stroke:none"
         id="path440" />
      <path
         d="m 1174.68,640.398 v 19.383 c 0,3.571 -2.25,3.68 -4.26,3.68 -3.67,0 -7.28,-2.672 -7.28,-2.672 v -20.391 h -4.51 v 26.614 h 3.34 l 1.01,-3.274 c 0,0 3.93,3.782 8.61,3.782 4.4,0 7.62,-1.821 7.62,-7.938 v -19.184 h -4.53 v 0"
         style="fill:#1a66ba;fill-opacity:1;fill-rule:nonzero;stroke:none"
         id="path442" />
      <path
         d="m 1197.9,639.891 c -4.79,0 -10.9,1.609 -10.9,13.808 0,11.961 6.17,13.821 10.9,13.821 4.71,0 10.86,-1.559 10.86,-13.821 0,-12.39 -6.11,-13.808 -10.86,-13.808 m 0,24.16 c -2.77,0 -6.39,-0.699 -6.39,-10.352 0,-9.59 4.1,-10.289 6.39,-10.289 2.25,0 6.35,0.852 6.35,10.289 0,9.801 -3.6,10.352 -6.35,10.352"
         style="fill:#1a66ba;fill-opacity:1;fill-rule:nonzero;stroke:none"
         id="path444" />
      <path
         d="m 1197.9,664.051 c -2.77,0 -6.39,-0.699 -6.39,-10.352 0,-9.59 4.1,-10.301 6.39,-10.301 2.25,0 6.35,0.864 6.35,10.301 0,9.789 -3.6,10.352 -6.35,10.352 m 0,-24.16 c -4.79,0 -10.9,1.609 -10.9,13.808 0,11.949 6.17,13.813 10.9,13.813 4.71,0 10.86,-1.551 10.86,-13.813 0,-12.398 -6.11,-13.808 -10.86,-13.808"
         style="fill:#1a66ba;fill-opacity:1;fill-rule:nonzero;stroke:none"
         id="path446" />
      <path
         d="m 1226.28,640.398 h -5.39 l -8.85,26.614 h 5.18 l 4.67,-17.024 c 0.97,-3.41 1.69,-7.429 1.69,-7.429 0,0 0.79,3.972 1.72,7.429 l 4.69,17.024 h 5.16 l -8.87,-26.614 v 0"
         style="fill:#1a66ba;fill-opacity:1;fill-rule:nonzero;stroke:none"
         id="path448" />
      <path
         d="m 1253.11,640.398 -0.5,3.122 c 0,0 -2.29,-3.629 -6.94,-3.629 -3.24,0 -7.77,1.16 -7.77,8.328 0,7.293 5.68,8.543 10.19,8.543 h 4.38 v 2.918 c 0,3.672 -1.97,4.011 -5.02,4.011 -2.42,0 -6.27,-1.05 -7.28,-1.351 v 3.82 c 0,0 3.8,1.36 7.98,1.36 4.81,0 8.83,-1.309 8.83,-8.641 v -18.481 z m -0.64,13.602 -3.26,-0.039 c -4.12,-0.051 -6.78,-0.961 -6.78,-5.332 0,-4.469 1.99,-5.059 4.26,-5.059 3.07,0 5.78,2.789 5.78,2.789 v 7.641 0"
         style="fill:#1a66ba;fill-opacity:1;fill-rule:nonzero;stroke:none"
         id="path450" />
      <path
         d="m 1252.48,654 -3.27,-0.039 c -4.12,-0.039 -6.77,-0.949 -6.77,-5.32 0,-4.481 1.99,-5.071 4.25,-5.071 3.07,0 5.79,2.801 5.79,2.801 z m 0.64,-13.602 -0.51,3.122 c 0,0 -2.28,-3.622 -6.93,-3.622 -3.24,0 -7.77,1.153 -7.77,8.321 0,7.301 5.68,8.551 10.19,8.551 h 4.38 v 2.91 c 0,3.672 -1.98,4.019 -5.02,4.019 -2.43,0 -6.27,-1.058 -7.29,-1.359 v 3.82 c 0,0 3.81,1.36 7.99,1.36 4.8,0 8.83,-1.309 8.83,-8.641 v -18.481 h -3.87 v 0"
         style="fill:#1a66ba;fill-opacity:1;fill-rule:nonzero;stroke:none"
         id="path452" />
      <path
         d="m 1273.29,639.891 c -3.81,0 -6,1.461 -6,6.679 v 16.969 h -4.55 V 667 h 4.55 l 0.18,6.039 4.34,2.012 V 667 h 6.03 l -0.51,-3.461 h -5.52 v -17.117 c 0,-2.363 0.78,-2.711 2.5,-2.711 1.66,0 4.53,0.91 4.53,0.91 v -3.832 c 0,0 -2.68,-0.898 -5.55,-0.898"
         style="fill:#1a66ba;fill-opacity:1;fill-rule:nonzero;stroke:none"
         id="path454" />
      <path
         d="m 1286.13,671.02 c -1.68,0 -2.95,1.371 -2.95,3.031 0,1.648 1.27,3.008 2.95,3.008 1.66,0 2.96,-1.36 2.96,-3.008 0,-1.66 -1.3,-3.031 -2.96,-3.031 m -2.27,-4.008 h 4.51 v -26.614 h -4.51 v 26.614 0"
         style="fill:#1a66ba;fill-opacity:1;fill-rule:nonzero;stroke:none"
         id="path456" />
      <path
         d="m 1286.13,671.02 c -1.68,0 -2.95,1.371 -2.95,3.031 0,1.648 1.27,3.008 2.95,3.008 1.66,0 2.97,-1.36 2.97,-3.008 0,-1.66 -1.31,-3.031 -2.97,-3.031"
         style="fill:#1a66ba;fill-opacity:1;fill-rule:nonzero;stroke:none"
         id="path458" />
      <path
         d="m 1288.37,667.012 h -4.51 v -26.614 h 4.51 v 26.614 0"
         style="fill:#1a66ba;fill-opacity:1;fill-rule:evenodd;stroke:none"
         id="path460" />
      <path
         d="m 1307.32,639.891 c -4.79,0 -10.92,1.609 -10.92,13.808 0,11.961 6.19,13.821 10.92,13.821 4.71,0 10.88,-1.559 10.88,-13.821 0,-12.39 -6.09,-13.808 -10.88,-13.808 m 0,24.16 c -2.77,0 -6.39,-0.699 -6.39,-10.352 0,-9.59 4.12,-10.289 6.39,-10.289 2.25,0 6.37,0.852 6.37,10.289 0,9.801 -3.62,10.352 -6.37,10.352"
         style="fill:#1a66ba;fill-opacity:1;fill-rule:nonzero;stroke:none"
         id="path462" />
      <path
         d="m 1307.32,664.051 c -2.77,0 -6.39,-0.699 -6.39,-10.352 0,-9.59 4.12,-10.301 6.39,-10.301 2.25,0 6.37,0.864 6.37,10.301 0,9.789 -3.62,10.352 -6.37,10.352 m 0,-24.16 c -4.79,0 -10.92,1.609 -10.92,13.808 0,11.949 6.19,13.813 10.92,13.813 4.71,0 10.88,-1.551 10.88,-13.813 0,-12.398 -6.09,-13.808 -10.88,-13.808"
         style="fill:#1a66ba;fill-opacity:1;fill-rule:nonzero;stroke:none"
         id="path464" />
      <path
         d="m 1342.06,640.398 v 19.383 c 0,3.571 -2.27,3.68 -4.28,3.68 -3.67,0 -7.26,-2.672 -7.26,-2.672 v -20.391 h -4.53 v 26.614 h 3.37 l 1,-3.274 c 0,0 3.91,3.782 8.57,3.782 4.44,0 7.64,-1.821 7.64,-7.938 v -19.184 h -4.51 v 0"
         style="fill:#1a66ba;fill-opacity:1;fill-rule:nonzero;stroke:none"
         id="path466" />
      <path
         d="M 1346.85,575.699 H 421.543 v 5 h 925.307 v -5"
         style="fill:#1a66ba;fill-opacity:1;fill-rule:nonzero;stroke:none"
         id="path468" />
      <path
         d="m 446.816,509.18 h -5.781 v -35.2 c 12.949,0.379 20.113,2.629 20.113,18.602 0,15.34 -6.289,16.598 -14.332,16.598 z m -5.781,-47.52 v -26.898 h -17.597 v 87.976 h 21.621 c 20.613,0 33.683,-4.636 33.683,-30.156 0,-23.762 -13.449,-30.422 -37.707,-30.922"
         style="fill:#1a66ba;fill-opacity:1;fill-rule:nonzero;stroke:none"
         id="path470" />
      <path
         d="m 517.41,486.422 c -3.894,0 -8.543,-2.391 -8.543,-2.391 v -49.269 h -17.601 v 66.617 h 14.078 l 2.261,-6.66 c 0,0 4.278,7.922 12.446,7.922 4.273,0 7.418,-0.762 7.418,-0.762 V 485.16 c 0,0 -6.289,1.262 -10.059,1.262"
         style="fill:#1a66ba;fill-opacity:1;fill-rule:nonzero;stroke:none"
         id="path472" />
      <path
         d="m 561.359,491.191 c -7.543,0 -10.558,-4.519 -10.808,-17.832 h 20.613 c -0.254,14.321 -3.394,17.832 -9.805,17.832 z m 26.903,-28.902 h -37.711 c 0.379,-13.07 7.793,-14.828 13.324,-14.828 8.926,0 20.363,3.391 20.363,3.391 v -13.954 c 0,0 -9.554,-3.386 -20.363,-3.386 -13.828,0 -30.797,3.636 -30.797,34.558 0,28.032 14.832,34.571 28.281,34.571 12.571,0 27.657,-6.032 27.024,-34.571 l -0.121,-5.781"
         style="fill:#1a66ba;fill-opacity:1;fill-rule:nonzero;stroke:none"
         id="path474" />
      <path
         d="m 604.055,434.762 v 66.617 h 17.601 v -66.617 z m 8.8,75.418 c -5.906,0 -10.429,4.902 -10.429,10.679 0,5.782 4.523,10.692 10.429,10.692 5.907,0 10.434,-4.91 10.434,-10.692 0,-5.777 -4.527,-10.679 -10.434,-10.679"
         style="fill:#1a66ba;fill-opacity:1;fill-rule:nonzero;stroke:none"
         id="path476" />
      <path
         d="m 655.191,433.512 c -8.425,0 -18.476,3.136 -18.476,3.136 v 14.204 c 0,0 12.312,-3.391 17.594,-3.391 5.656,0 9.804,1.258 9.804,6.027 0,4.153 -3.894,5.66 -8.675,7.422 l -5.278,1.879 c -6.789,2.391 -14.707,7.172 -14.707,19.109 0,16.461 12.699,20.743 25.895,20.743 9.425,0 17.093,-3.153 17.093,-3.153 v -13.699 c 0,0 -11.058,3.02 -16.339,3.02 -6.786,0 -9.68,-1.629 -9.68,-5.661 0,-4.019 4.277,-5.398 9.305,-7.289 l 6.285,-2.379 c 6.785,-2.64 13.191,-7.671 13.191,-18.48 0,-18.98 -13.57,-21.488 -26.012,-21.488"
         style="fill:#1a66ba;fill-opacity:1;fill-rule:nonzero;stroke:none"
         id="path478" />
      <path
         d="m 715.742,433.512 c -9.051,0 -18.226,2.258 -18.226,17.968 v 38.09 h -11.313 v 11.809 h 11.313 l 1.257,14.711 16.336,5.398 v -20.109 h 15.086 l -1.757,-11.809 h -13.329 v -37.84 c 0,-3.769 2.016,-4.269 4.278,-4.269 2.89,0 12.066,2.258 12.066,2.258 v -13.328 c 0,0 -7.539,-2.879 -15.711,-2.879"
         style="fill:#1a66ba;fill-opacity:1;fill-rule:nonzero;stroke:none"
         id="path480" />
      <path
         d="m 768.883,486.422 c -3.895,0 -8.543,-2.391 -8.543,-2.391 v -49.269 h -17.602 v 66.617 h 14.078 l 2.262,-6.66 c 0,0 4.274,7.922 12.445,7.922 4.27,0 7.418,-0.762 7.418,-0.762 V 485.16 c 0,0 -6.289,1.262 -10.058,1.262"
         style="fill:#1a66ba;fill-opacity:1;fill-rule:nonzero;stroke:none"
         id="path482" />
      <path
         d="m 826.672,510.18 c -5.652,0 -9.926,4.519 -9.926,10.058 0,5.524 4.274,10.051 9.926,10.051 5.656,0 9.933,-4.527 9.933,-10.051 0,-5.539 -4.277,-10.058 -9.933,-10.058 z m -8.164,-43.489 -5.031,-0.121 c -9.93,-0.261 -13.825,-2.648 -13.825,-11.199 0,-6.91 3.141,-8.793 7.668,-8.793 6.157,0 11.188,3.274 11.188,3.274 z m -23.133,43.489 c -5.656,0 -9.926,4.519 -9.926,10.058 0,5.524 4.27,10.051 9.926,10.051 5.656,0 9.934,-4.527 9.934,-10.051 0,-5.539 -4.278,-10.058 -9.934,-10.058 z m 25.395,-75.418 -1.887,5.91 c 0,0 -6.539,-7.16 -17.973,-7.16 -8.172,0 -18.855,3.386 -18.855,21.488 0,18.219 14.957,21.371 24.886,21.371 h 11.567 v 4.777 c 0,6.532 -3.395,7.282 -9.434,7.282 -9.422,0 -20.988,-3.77 -20.988,-3.77 v 13.949 c 0,0 11.437,4.032 24.012,4.032 13.066,0 24.004,-3.27 24.004,-21.621 V 434.762 H 820.77"
         style="fill:#1a66ba;fill-opacity:1;fill-rule:nonzero;stroke:none"
         id="path484" />
      <path
         d="m 879.297,491.828 c -6.789,0 -10.559,-3.898 -10.559,-12.187 0,-8.801 3.645,-12.192 10.559,-12.192 6.914,0 10.558,3.391 10.558,12.192 0,8.668 -4.019,12.187 -10.558,12.187 z m 5.402,-56.308 -16.969,1 c -1.125,-2.008 -2.007,-4.02 -2.007,-6.649 0,-6.172 4.023,-8.551 12.066,-8.551 12.195,0 17.973,1.879 17.973,8.668 0,4.774 -2.137,5.032 -11.063,5.532 z m 17.352,53.539 c 0,0 4.269,-2.879 4.269,-10.047 0,-16.852 -11.941,-22.5 -27.023,-22.5 -4.02,0 -7.918,0.629 -10.684,1.379 -1.761,-1.129 -3.015,-2.77 -3.015,-4.403 0,-2.886 2.261,-3.269 6.031,-3.519 l 19.355,-1.129 c 12.321,-0.75 20.743,-3.52 20.743,-17.852 0,-16.968 -11.817,-21.359 -33.938,-21.359 -17.848,0 -27.906,4.769 -27.906,17.211 0,7.301 5.535,11.441 7.418,12.699 -2.891,2.012 -4.903,5.152 -4.903,9.68 0,6.152 4.024,9.801 8.168,12.441 -5.027,3.649 -8.418,9.301 -8.418,17.852 0,17.218 12.192,23.129 27.149,23.129 6.156,0 7.793,-1.262 10.933,-1.262 h 22.879 v -12.32 h -11.058"
         style="fill:#1a66ba;fill-opacity:1;fill-rule:nonzero;stroke:none"
         id="path486" />
      <path
         d="m 948.871,491.191 c -7.543,0 -10.558,-4.519 -10.808,-17.832 h 20.617 c -0.254,14.321 -3.399,17.832 -9.809,17.832 z m 26.902,-28.902 h -37.71 c 0.378,-13.07 7.796,-14.828 13.324,-14.828 8.926,0 20.363,3.391 20.363,3.391 v -13.954 c 0,0 -9.555,-3.386 -20.363,-3.386 -13.824,0 -30.793,3.636 -30.793,34.558 0,28.032 14.832,34.571 28.277,34.571 12.57,0 27.656,-6.032 27.024,-34.571 l -0.122,-5.781"
         style="fill:#1a66ba;fill-opacity:1;fill-rule:nonzero;stroke:none"
         id="path488" />
      <path
         d="m 1017.07,486.422 c -3.89,0 -8.54,-2.391 -8.54,-2.391 v -49.269 h -17.6 v 66.617 h 14.08 l 2.26,-6.66 c 0,0 4.27,7.922 12.44,7.922 4.27,0 7.42,-0.762 7.42,-0.762 V 485.16 c 0,0 -6.29,1.262 -10.06,1.262"
         style="fill:#1a66ba;fill-opacity:1;fill-rule:nonzero;stroke:none"
         id="path490" />
      <path
         d="m 1062.33,432.172 v 14.539 l 13.71,11.32 c 13.7,10.071 18.87,15.801 18.87,22.52 0,6.289 -4.19,10.758 -12.3,10.758 -6.01,0 -12.72,-2.52 -16.64,-5.028 l -2.51,15.09 c 6.43,2.938 14.4,5.039 23.35,5.039 18.17,0 27.82,-9.23 27.82,-22.512 0,-10.488 -6.15,-19.578 -17.62,-27.957 l -10.2,-8.113 -0.15,-0.43 c 7.56,0.571 18.46,0.571 30.62,0.571 v -15.797 h -54.95"
         style="fill:#1a66ba;fill-opacity:1;fill-rule:nonzero;stroke:none"
         id="path492" />
      <path
         d="m 1166.12,491.309 c -10.49,0 -19.16,-8.387 -19.16,-22.368 0,-13.152 5.74,-22.929 18.74,-22.929 10.21,0 19.02,8.668 19.02,22.929 0,13 -6.16,22.368 -18.6,22.368 z m -1.68,-60.68 c -19.43,0 -35.23,10.203 -35.23,37.051 0,24.191 17.75,38.73 37.61,38.73 26.42,0 35.79,-18.172 35.79,-37.051 0,-24.328 -17.61,-38.73 -38.17,-38.73"
         style="fill:#1a66ba;fill-opacity:1;fill-rule:nonzero;stroke:none"
         id="path494" />
      <path
         d="m 1214.68,432.172 v 14.539 l 13.7,11.32 c 13.71,10.071 18.88,15.801 18.88,22.52 0,6.289 -4.19,10.758 -12.3,10.758 -6.01,0 -12.72,-2.52 -16.64,-5.028 l -2.52,15.09 c 6.44,2.938 14.41,5.039 23.35,5.039 18.18,0 27.83,-9.23 27.83,-22.512 0,-10.488 -6.15,-19.578 -17.62,-27.957 l -10.21,-8.113 -0.14,-0.43 c 7.56,0.571 18.46,0.571 30.62,0.571 v -15.797 h -54.95"
         style="fill:#1a66ba;fill-opacity:1;fill-rule:nonzero;stroke:none"
         id="path496" />
      <path
         d="m 1319.03,487.539 h -0.14 l -23.77,-39.57 c 6.01,0.281 19.72,0.281 23.91,0.281 z m 17.34,-55.367 v -25.313 h -17.62 v 25.313 h -37.89 l -2.94,14.539 35.79,58.168 h 22.66 V 448.25 h 14.82 v -16.078 h -14.82"
         style="fill:#1a66ba;fill-opacity:1;fill-rule:nonzero;stroke:none"
         id="path498" />
    </g>
  </g>
</svg>
